<svg xmlns="http://www.w3.org/2000/svg" xmlns:xlink="http://www.w3.org/1999/xlink" fill="none" version="1.1" width="14" height="14" viewBox="0 0 14 14"><g><path d="M7,0C8.97933,0.052,10.6278,0.736833,11.9455,2.0545C13.2632,3.37217,13.948,5.02067,14,7C13.948,8.97933,13.2632,10.6278,11.9455,11.9455C10.6278,13.2632,8.97933,13.948,7,14C5.02067,13.948,3.37217,13.2632,2.0545,11.9455C0.736833,10.6278,0.052,8.97933,0,7C0.052,5.02067,0.736833,3.37217,2.0545,2.0545C3.37217,0.736833,5.02067,0.052,7,0C7,0,7,0,7,0C7,0,7,0,7,0ZM6.125,8.375C6.125,8.375,4.578,6.828,4.578,6.828C4.453,6.71333,4.30983,6.656,4.1485,6.656C3.98717,6.656,3.8465,6.71583,3.7265,6.8355C3.6065,6.95517,3.54667,7.09317,3.547,7.2495C3.54733,7.40583,3.60467,7.5465,3.719,7.6715C3.719,7.6715,5.7035,9.656,5.7035,9.656C5.81817,9.77067,5.95883,9.828,6.1255,9.828C6.29217,9.828,6.43283,9.77067,6.5475,9.656C6.5475,9.656,10.657,5.5465,10.657,5.5465C10.8133,5.39017,10.8628,5.2,10.8055,4.976C10.7482,4.752,10.6075,4.61133,10.3835,4.554C10.1595,4.49667,9.96933,4.54617,9.813,4.7025C9.813,4.7025,6.125,8.375,6.125,8.375C6.125,8.375,6.125,8.375,6.125,8.375Z" fill="#23C343" fill-opacity="1"/></g></svg>