<svg xmlns="http://www.w3.org/2000/svg" xmlns:xlink="http://www.w3.org/1999/xlink" fill="none" version="1.1" width="850" height="655.8113403320312" viewBox="0 0 850 655.8113403320312"><defs><clipPath id="master_svg0_3_2338"><rect x="0" y="0" width="850" height="655.8113403320312" rx="0"/></clipPath><clipPath id="master_svg1_3_2355"><rect x="335.57177734375" y="101.352294921875" width="80.91181945800781" height="80.91180419921875" rx="0"/></clipPath><mask id="master_svg2_3_2349" style="mask-type:alpha" maskUnits="userSpaceOnUse"><g><path d="M549.0382919433594,104.9404069453125C550.9408919433594,104.4111449453125,552.9160919433593,104.1899983453125,554.8886919433594,104.2853801453125C565.0229919433593,104.6519939453125,574.9400919433593,107.3236639453125,583.8856919433593,112.0971639453125C601.5581919433594,121.7284939453125,603.1602919433594,107.2451239453125,620.0316919433594,105.2679139453125C629.6204919433594,104.1276879453125,641.1514919433594,104.2489866453125,648.8104919433594,111.0297139453125C657.6954919433593,118.9021939453125,657.6104919433594,132.6697939453125,657.8164919433593,143.5504939453125C658.0104919433594,154.2249939453125,658.2414919433594,164.8388939453125,657.2214919433594,175.4769939453125C655.3034919433594,195.4551939453125,649.7564919433594,219.56979394531248,631.2104919433593,230.6927939453125C630.1184919433593,231.3477939453125,628.1514919433594,232.8647939453125,626.8654919433594,232.9247939453125Q619.2306919433594,233.3257939453125,615.2130919433594,222.49279394531248C611.1954919433593,211.6607939453125,608.7800919433594,179.9043939453125,589.5053919433594,185.9451939453125C570.2306919433594,191.9859939453125,574.2361919433594,223.6937939453125,557.7288919433594,234.1627939453125Q548.4920919433594,236.5887939453125,539.6558919433594,216.0887939453125C534.8495419433593,204.4517939453125,531.3250319433594,192.32749394531248,529.1446019433594,179.9286939453125C526.2315557433594,164.5113939453125,524.6536619433593,148.0143939453125,528.1978719433594,132.62129394531252C529.4137219433594,126.8835939453125,531.6767119433594,121.4187939453125,534.8736019433594,116.5003939453125C538.4177919433594,111.1631439453125,543.1636919433594,106.6264939453125,549.0382919433594,104.9404069453125Z" fill="#FFFFFF" fill-opacity="1"/></g></mask><mask id="master_svg3_3_2343" style="mask-type:alpha" maskUnits="userSpaceOnUse"><g><path d="M549.0382919433594,104.9404069453125C550.9408919433594,104.4111449453125,552.9160919433593,104.1899983453125,554.8886919433594,104.2853801453125C565.0229919433593,104.6519939453125,574.9400919433593,107.3236639453125,583.8856919433593,112.0971639453125C601.5581919433594,121.7284939453125,603.1602919433594,107.2451239453125,620.0316919433594,105.2679139453125C629.6204919433594,104.1276879453125,641.1514919433594,104.2489866453125,648.8104919433594,111.0297139453125C657.6954919433593,118.9021939453125,657.6104919433594,132.6697939453125,657.8164919433593,143.5504939453125C658.0104919433594,154.2249939453125,658.2414919433594,164.8388939453125,657.2214919433594,175.4769939453125C655.3034919433594,195.4551939453125,649.7564919433594,219.56979394531248,631.2104919433593,230.6927939453125C630.1184919433593,231.3477939453125,628.1514919433594,232.8647939453125,626.8654919433594,232.9247939453125Q619.2306919433594,233.3257939453125,615.2130919433594,222.49279394531248C611.1954919433593,211.6607939453125,608.7800919433594,179.9043939453125,589.5053919433594,185.9451939453125C570.2306919433594,191.9859939453125,574.2361919433594,223.6937939453125,557.7288919433594,234.1627939453125Q548.4920919433594,236.5887939453125,539.6558919433594,216.0887939453125C534.8495419433593,204.4517939453125,531.3250319433594,192.32749394531248,529.1446019433594,179.9286939453125C526.2315557433594,164.5113939453125,524.6536619433593,148.0143939453125,528.1978719433594,132.62129394531252C529.4137219433594,126.8835939453125,531.6767119433594,121.4187939453125,534.8736019433594,116.5003939453125C538.4177919433594,111.1631439453125,543.1636919433594,106.6264939453125,549.0382919433594,104.9404069453125Z" fill="#FFFFFF" fill-opacity="1"/></g></mask><mask id="master_svg4_3_2346" style="mask-type:alpha" maskUnits="userSpaceOnUse"><g><path d="M549.0382919433594,104.9404069453125C550.9408919433594,104.4111449453125,552.9160919433593,104.1899983453125,554.8886919433594,104.2853801453125C565.0229919433593,104.6519939453125,574.9400919433593,107.3236639453125,583.8856919433593,112.0971639453125C601.5581919433594,121.7284939453125,603.1602919433594,107.2451239453125,620.0316919433594,105.2679139453125C629.6204919433594,104.1276879453125,641.1514919433594,104.2489866453125,648.8104919433594,111.0297139453125C657.6954919433593,118.9021939453125,657.6104919433594,132.6697939453125,657.8164919433593,143.5504939453125C658.0104919433594,154.2249939453125,658.2414919433594,164.8388939453125,657.2214919433594,175.4769939453125C655.3034919433594,195.4551939453125,649.7564919433594,219.56979394531248,631.2104919433593,230.6927939453125C630.1184919433593,231.3477939453125,628.1514919433594,232.8647939453125,626.8654919433594,232.9247939453125Q619.2306919433594,233.3257939453125,615.2130919433594,222.49279394531248C611.1954919433593,211.6607939453125,608.7800919433594,179.9043939453125,589.5053919433594,185.9451939453125C570.2306919433594,191.9859939453125,574.2361919433594,223.6937939453125,557.7288919433594,234.1627939453125Q548.4920919433594,236.5887939453125,539.6558919433594,216.0887939453125C534.8495419433593,204.4517939453125,531.3250319433594,192.32749394531248,529.1446019433594,179.9286939453125C526.2315557433594,164.5113939453125,524.6536619433593,148.0143939453125,528.1978719433594,132.62129394531252C529.4137219433594,126.8835939453125,531.6767119433594,121.4187939453125,534.8736019433594,116.5003939453125C538.4177919433594,111.1631439453125,543.1636919433594,106.6264939453125,549.0382919433594,104.9404069453125Z" fill="#FFFFFF" fill-opacity="1"/></g></mask><clipPath id="master_svg5_3_2465"><rect x="175.450927734375" y="373.046142578125" width="250.62144470214844" height="281.07421875" rx="0"/></clipPath><mask id="master_svg6_3_2435" style="mask-type:alpha" maskUnits="userSpaceOnUse"><g><path d="M508.88565564453125,368.1827201843262L502.54401664453127,388.6217201843262L502.19903564453125,399.1518201843262L521.6196356445313,400.65902018432615L532.9737356445313,376.62513018432617L508.88565564453125,368.1827201843262Z" fill="#FFFFFF" fill-opacity="1"/></g></mask><mask id="master_svg7_3_2441" style="mask-type:alpha" maskUnits="userSpaceOnUse"><g><path d="M412.2395477294922,453.0447970214844Q470.50144772949216,389.15136702148436,496.0404477294922,391.1168579214844L523.5175477294922,398.9991570214844C523.8785477294922,401.91719702148436,524.0005477294922,404.8599970214844,523.8825477294922,407.7979970214844C523.2525477294922,418.8703970214844,519.5475477294922,429.54489702148436,513.1885477294921,438.6142970214844C512.4275477294922,439.7039970214844,508.59174772949217,443.7061970214844,500.96154772949217,451.64969702148437C476.0008477294922,477.6489970214844,478.9433477294922,473.4837970214844,476.8937477294922,476.1926970214844C474.09334772949217,479.8995970214844,471.0391477294922,484.45179702148437,464.8598477294922,487.69029702148435C462.1645477294922,489.09789702148436,459.2637477294922,490.0671970214844,456.2657477294922,490.56209702148436C443.3084477294922,492.5481970214844,432.12684772949217,482.8631970214844,428.2813477294922,479.5329970214844C420.38828772949216,472.5349970214844,414.7949677294922,463.29919702148436,412.2395477294922,453.0447970214844Z" fill="#FFFFFF" fill-opacity="1"/></g></mask><mask id="master_svg8_3_2512" style="mask-type:alpha" maskUnits="userSpaceOnUse"><g><path d="M335.1370849609375,483.276443828125Q356.9157849609375,573.918123828125,359.2803849609375,581.9454238281251Q361.6448849609375,589.972423828125,371.3519849609375,635.867423828125L394.3440849609375,635.867423828125Q394.0951849609375,566.092923828125,387.4370849609375,530.413823828125Q380.7790849609375,494.73472382812497,370.7763849609375,474.659423828125L335.1370849609375,483.276443828125Z" fill="#FFFFFF" fill-opacity="1"/></g></mask><mask id="master_svg9_3_2503" style="mask-type:alpha" maskUnits="userSpaceOnUse"><g><path d="M318.817626953125,231.473446171875Q320.808816953125,254.762626171875,319.813223953125,258.706326171875Q318.817626953125,262.649926171875,349.587826953125,251.284826171875Q337.687326953125,226.023766171875,334.202726953125,224.533254171875Q330.718126953125,223.042746171875,318.817626953125,231.473446171875Z" fill="#FFFFFF" fill-opacity="1"/></g></mask><mask id="master_svga_3_2398" style="mask-type:alpha" maskUnits="userSpaceOnUse"><g><path d="M841.843946520996,486.4598370996094Q844.3778465209961,506.00422709960935,840.4029465209961,519.7541270996094C836.4280265209961,533.5040270996094,829.4549745209961,615.6835270996094,829.3292465209961,627.6015270996094Q830.1222985209961,635.5665270996094,839.2327165209961,635.9255270996093Q848.3431465209961,636.2845270996094,853.410946520996,631.2255270996094Q861.351146520996,580.9355270996093,872.9180465209961,557.9417270996094Q884.4850465209961,534.9477270996093,863.1596465209961,479.2215270996094L841.843946520996,486.4598370996094Z" fill="#FFFFFF" fill-opacity="1"/></g></mask><mask id="master_svgb_3_2381" style="mask-type:alpha" maskUnits="userSpaceOnUse"><g><path d="M876.0315767333984,239.6693344116211Q904.0785767333984,248.0607344116211,911.4868767333984,265.5315344116211Q918.8950767333985,283.0022344116211,920.3264767333984,349.4743344116211L970.9172767333985,387.2653344116211L961.3812767333984,407.4583344116211L923.4792767333985,385.4233344116211Q926.0228767333984,494.1143344116211,923.4792767333985,502.4773344116211C920.9357767333985,510.8393344116211,882.4533767333984,518.3203344116212,849.0097767333984,499.3953344116211Q835.7406867333984,493.23333441162106,828.2743913333984,487.9523344116211C828.2453825333985,488.0003344116211,833.7000367333984,262.8668344116211,876.0315767333984,239.6693344116211Z" fill="#FFFFFF" fill-opacity="1"/></g></mask></defs><g clip-path="url(#master_svg0_3_2338)"><g><g clip-path="url(#master_svg1_3_2355)"><g><path d="M410.631549609375,135.75036484375C410.66444960937497,135.91476484375,411.369949609375,139.73026484375,411.369949609375,142.73666484375C411.369949609375,145.80366484375,410.641749609375,149.68236484375,410.631549609375,149.72036484375C410.216949609375,151.92006484375,408.88184960937497,153.34866484375,407.172649609375,153.34866484375L406.874249609375,153.34866484375C402.100449609375,153.34866484375,398.224249609375,157.26536484375,398.224249609375,162.08466484375C398.224249609375,163.63716484374999,398.97014960937497,165.40456484375,398.977749609375,165.41976484375C399.832449609375,167.35906484375,399.172449609375,169.73586484375,397.334249609375,171.02286484375L388.310049609375,176.04696484375C386.425249609375,176.81786484375,384.260149609375,176.34286484375,382.871249609375,174.85356484375C381.890249609375,173.77136484375,378.491949609375,170.67146484375002,375.837049609375,170.67146484375002C373.389449609375,170.67146484375002,370.077049609375,173.43256484375001,368.853349609375,174.77516484375002C367.980949609375,175.73346484375,366.630749609375,176.30496484374999,365.257749609375,176.30496484374999C364.60034960937503,176.30496484374999,363.978349609375,176.17846484375002,363.295649609375,175.87506484375L354.597649609375,170.95206484375C352.860749609375,169.68616484375,352.229249609375,167.38786484375,353.075549609375,165.41216484375C353.083049609375,165.39696484375,353.828949609375,163.64476484375,353.828949609375,162.08466484375C353.828949609375,157.27296484375,349.952809609375,153.34866484375,345.181539609375,153.34866484375L344.819969609375,153.34866484375C343.171389609375,153.34866484375,341.836339609375,151.92766484375,341.421669609375,149.72036484375C341.388799609375,149.55596484375,340.683349609375,145.72536484375001,340.683349609375,142.73666484375C340.683349609375,139.73786484375,341.391327609375,135.90966484375,341.421669609375,135.75036484375C341.836339609375,133.54556484375001,343.163799609375,132.12456484375,344.873059609375,132.12456484375L345.171429609375,132.12456484375C349.945229609375,132.12456484375,353.821449609375,128.20536484375,353.821449609375,123.38856484375C353.821449609375,121.81076484375001,353.075549609375,120.06866484375,353.067949609375,120.05096484375C352.213249609375,118.11415484375,352.873249609375,115.72725484375,354.716449609375,114.44025484375L363.907549609375,109.36303884375C364.473949609375,109.11777484375,365.085849609375,109.00146484375,365.728049609375,109.00146484375C367.103549609375,109.00146484375,368.44364960937503,109.55773384375,369.323649609375,110.50086484375C370.289449609375,111.51984484375,373.624549609375,114.44025484375,376.201149609375,114.44025484375C378.749849609375,114.44025484375,382.069749609375,111.58305484375,383.028049609375,110.57924484375C383.907949609375,109.66140084375,385.240449609375,109.11271784375,386.598249609375,109.11271784375C387.258249609375,109.11271784375,387.887849609375,109.23661384375,388.570549609375,109.53497684375L397.437949609375,114.52622484375C399.164849609375,115.74242484375,399.824849609375,118.12174484375,398.970249609375,120.06866484375C398.962649609375,120.08386484375,398.21674960937503,121.83356484375,398.21674960937503,123.39616484375C398.21674960937503,128.20786484375,402.100449609375,132.13216484375,406.864149609375,132.13216484375L407.225749609375,132.13216484375C408.88184960937497,132.12456484375,410.216949609375,133.54556484375001,410.631549609375,135.75036484375ZM388.560349609375,143.69236484375C388.560349609375,136.72386484375,382.942049609375,131.05756484375001,376.044349609375,131.05756484375001C369.141549609375,131.05756484375001,363.523249609375,136.72136484375,363.523249609375,143.69236484375C363.523249609375,150.66346484375,369.136549609375,156.32976484375,376.041849609375,156.32976484375C382.949649609375,156.32976484375,388.560349609375,150.66346484375,388.560349609375,143.69236484375Z" fill="#2E6CE4" fill-opacity="1"/></g></g><g><rect x="401.152587890625" y="57.063720703125" width="295.541015625" height="206.96388244628906" rx="0" fill="#B5CEF6" fill-opacity="1"/></g><g><rect x="410.036865234375" y="67.726806640625" width="274.2029724121094" height="186.53677368164062" rx="0" fill="#FCFDFF" fill-opacity="1"/></g><g><rect x="422.04052734375" y="75.271728515625" width="252.876953125" height="8.87923812866211" rx="0" fill="#B5CEF6" fill-opacity="1"/></g><g><rect x="430.92578125" y="147.2275390625" width="75.99418640136719" height="8.44255256652832" rx="0" fill-opacity="0" stroke-opacity="1" stroke="#B5CEF6" fill="none" stroke-width="0.8517031669616699"/></g><g><rect x="430.92578125" y="160.545654296875" width="75.99418640136719" height="48.69023132324219" rx="0" fill-opacity="0" stroke-opacity="1" stroke="#B5CEF6" fill="none" stroke-width="0.8517031669616699"/></g><g><rect x="437.8330078125" y="168.83056640625" width="11.069589614868164" height="3.4692094326019287" rx="1.217935562133789" fill="#729DE2" fill-opacity="1"/></g><g><rect x="438.560302734375" y="177.504150390625" width="9.600926399230957" height="2.6564934253692627" rx="0" fill="#9A9EA4" fill-opacity="1"/></g><g><rect x="438.560302734375" y="182.73095703125" width="9.600926399230957" height="2.6564934253692627" rx="0" fill="#9A9EA4" fill-opacity="1"/></g><g><rect x="457.434326171875" y="177.504150390625" width="9.600926399230957" height="2.6564934253692627" rx="0" fill="#9A9EA4" fill-opacity="1"/></g><g><rect x="457.434326171875" y="182.73095703125" width="9.600926399230957" height="2.6564934253692627" rx="0" fill="#9A9EA4" fill-opacity="1"/></g><g><rect x="476.004638671875" y="177.504150390625" width="9.600926399230957" height="2.6564934253692627" rx="0" fill="#9A9EA4" fill-opacity="1"/></g><g><rect x="476.004638671875" y="182.73095703125" width="9.600926399230957" height="2.6564934253692627" rx="0" fill="#9A9EA4" fill-opacity="1"/></g><g><rect x="491.590087890625" y="177.504150390625" width="9.600926399230957" height="2.6564934253692627" rx="0" fill="#9A9EA4" fill-opacity="1"/></g><g><rect x="491.590087890625" y="182.73095703125" width="9.600926399230957" height="2.6564934253692627" rx="0" fill="#9A9EA4" fill-opacity="1"/></g><g><rect x="491.590087890625" y="188.747802734375" width="9.600926399230957" height="2.6564934253692627" rx="0" fill="#9A9EA4" fill-opacity="1"/></g><g><rect x="438.560302734375" y="188.747802734375" width="9.600926399230957" height="2.6564934253692627" rx="0" fill="#9A9EA4" fill-opacity="1"/></g><g><rect x="456.706298828125" y="168.83056640625" width="11.069589614868164" height="3.4692094326019287" rx="1.217935562133789" fill="#729DE2" fill-opacity="1"/></g><g><rect x="474.536865234375" y="168.83056640625" width="11.069589614868164" height="3.4692094326019287" rx="1.217935562133789" fill="#729DE2" fill-opacity="1"/></g><g><rect x="490.8623046875" y="168.83056640625" width="11.069589614868164" height="3.4692094326019287" rx="1.217935562133789" fill="#729DE2" fill-opacity="1"/></g><g><path d="M549.038200390625,104.940529015625C550.940800390625,104.411267015625,552.916000390625,104.190120415625,554.888600390625,104.285502215625C565.022900390625,104.652116015625,574.940000390625,107.323786015625,583.885600390625,112.097286015625C601.558100390625,121.728616015625,603.160200390625,107.245246015625,620.031600390625,105.268036015625C629.620400390625,104.127810015625,641.151400390625,104.249108715625,648.810400390625,111.029836015625C657.695400390625,118.902316015625,657.610400390625,132.669916015625,657.816400390625,143.550616015625C658.010400390625,154.225116015625,658.241400390625,164.839016015625,657.221400390625,175.477116015625C655.303400390625,195.455316015625,649.756400390625,219.56991601562498,631.210400390625,230.692916015625C630.118400390625,231.347916015625,628.151400390625,232.864916015625,626.865400390625,232.924916015625Q619.230600390625,233.325916015625,615.213000390625,222.49291601562498C611.195400390625,211.660916015625,608.780000390625,179.904516015625,589.505300390625,185.945316015625C570.230600390625,191.986116015625,574.236100390625,223.693916015625,557.728800390625,234.162916015625Q548.492000390625,236.588916015625,539.655800390625,216.088916015625C534.849450390625,204.451916015625,531.324940390625,192.32761601562498,529.144510390625,179.928816015625C526.231464190625,164.511516015625,524.653570390625,148.014516015625,528.197780390625,132.62141601562502C529.413630390625,126.883716015625,531.676620390625,121.418916015625,534.873510390625,116.500516015625C538.417700390625,111.163266015625,543.163600390625,106.626616015625,549.038200390625,104.940529015625Z" fill="#FFE1D4" fill-opacity="1"/></g><g><g mask="url(#master_svg2_3_2349)"><g><path d="M517.0188870092344,120.8206787109375Q516.9096522402343,129.6150087109375,565.7032462402344,160.9955787109375Q614.4968462402344,192.3761787109375,669.0196462402344,177.5046787109375L674.9056462402343,219.6082787109375Q635.7136462402343,255.5136787109375,625.8216462402344,259.7706787109375Q615.9290462402344,264.02867871093747,519.7862762402344,242.5586787109375L517.0188870092344,120.8206787109375Z" fill="#F9DAD2" fill-opacity="1"/></g></g><g mask="url(#master_svg3_3_2343)"><g><path d="M625.8200481308594,114.8652693359375Q624.8490271308593,119.1593293359375,630.2138941308593,124.1569193359375C635.5787541308594,129.1545193359375,632.3622741308594,140.6053193359375,638.8074341308594,142.0367193359375C645.2525341308594,143.4680193359375,651.3335341308593,134.5282193359375,647.3887341308593,128.8149193359375C643.4440341308593,123.1016193359375,637.8363341308594,101.6313293359375,625.8200481308594,114.8652693359375Z" fill="#FFEAE3" fill-opacity="1"/></g></g><g mask="url(#master_svg4_3_2346)"><g><path d="M519.0939663964843,147.2271728515625Q529.2896563964844,189.43997285156252,546.1246563964844,217.2178728515625Q562.9596563964844,244.9957728515625,567.5234563964843,221.8879728515625Q571.7109563964843,188.9425728515625,585.7299563964843,184.4544728515625C599.7490563964843,179.96637285156248,613.1980563964844,186.3952728515625,617.9070563964843,220.3231728515625Q621.0510563964843,227.71047285156249,624.8620563964844,230.5609728515625C626.8380563964844,232.22437285156252,629.4650563964843,232.8984728515625,631.9990563964843,232.3926728515625L649.0520563964844,230.7186728515625L625.8210563964844,251.7281728515625Q523.8640563964843,249.8111728515625,522.9537563964843,247.4221728515625C522.0434563964844,245.0321728515625,510.5368963964844,187.0381728515625,511.4957666964844,184.0662728515625Q512.4546363964844,181.0944728515625,519.0939663964843,147.2271728515625Z" fill="#EDCABE" fill-opacity="1"/></g></g></g><g><ellipse cx="634.9609146118164" cy="169.69175243377686" rx="9.151832580566406" ry="9.146098136901855" fill="#BD4045" fill-opacity="1"/></g><g><ellipse cx="634.9609851837158" cy="170.56453323364258" rx="19.05620002746582" ry="19.044269561767578" fill-opacity="0" stroke-opacity="1" stroke="#BD4045" fill="none" stroke-width="0.8517031669616699"/></g></g><g><g><g><path d="M203.9013671875,360.9870390625L327.5293671875,237.5400390625L327.5293671875,249.1660390625L208.8096171875,368.2420390625L203.9013671875,360.9870390625Z" fill="#8EADEA" fill-opacity="1"/></g><g><path d="M341.18721328125,244.01904296875L375.03311328125,278.05074296875L369.34361328125,286.33904296875L333.70361328125,249.93852296875L341.18721328125,244.01904296875Z" fill="#8EADEA" fill-opacity="1"/></g><g><g><ellipse cx="333.0193119049072" cy="241.2771511077881" rx="12.316415786743164" ry="12.168996810913086" fill="#335088" fill-opacity="1"/></g><g><ellipse cx="333.01919507980347" cy="241.14340686798096" rx="5.490127086639404" ry="5.424412727355957" fill="#8EADEA" fill-opacity="1"/></g></g><g><path d="M398.90072109375,266.5566909375Q386.02402109375,257.0173909375,365.55052109375,276.5698109375Q345.07700109375,296.1221109375,361.00861109375,317.3513109375L398.90072109375,266.5566909375Z" fill="#2E6CE4" fill-opacity="1"/></g><g><path d="M351.1109295375,317.351902734375Q357.8671809375,270.847802734375,407.3484109375,260.834712734375C456.8297109375,250.821642734375,434.6212109375,312.816502734375,410.0045109375,330.942202734375C385.3878109375,349.067902734375,349.4245609375,354.311302734375,351.1109295375,317.351902734375Z" fill="#8EADEA" fill-opacity="1"/></g><g><path d="M363.859104703125,323.175248828125C361.838695703125,313.635948828125,366.412895703125,305.667048828125,369.473155703125,300.327748828125C373.736595703125,292.949748828125,379.807595703125,286.748248828125,387.128795703125,282.292518828125C388.206395703125,281.648398828125,412.321995703125,267.318158828125,424.44449570312497,277.357838828125C427.231795703125,279.712878828125,429.190095703125,282.881718828125,430.03689570312497,286.407448828125C434.842895703125,305.406148828125,415.085895703125,332.842348828125,391.659995703125,337.856848828125C387.759195703125,338.692548828125,377.748795703125,340.837848828125,370.550705703125,335.115348828125C365.540085703125,331.12284882812503,364.290118703125,325.192748828125,363.859104703125,323.175248828125Z" fill="#D7E3F9" fill-opacity="1"/></g><g transform="matrix(0.711351215839386,-0.7028366923332214,0.711351215839386,0.7028367519378662,-91.0540600734239,371.7040668384434)"><ellipse cx="416.0826139450073" cy="299.0071167945862" rx="10.861178398132324" ry="6.576696872711182" fill="#FFFFFF" fill-opacity="1"/></g><g transform="matrix(0.711351215839386,-0.7028366923332214,0.711351215839386,0.7028367519378662,-109.17055556297419,364.2282712232409)"><ellipse cx="397.8125944137573" cy="317.0613160133362" rx="10.861178398132324" ry="6.576696872711182" fill="#FFFFFF" fill-opacity="1"/></g><g transform="matrix(0.711351215839386,-0.7028366923332214,0.711351215839386,0.7028367519378662,-103.66842980390356,352.85690838504524)"><ellipse cx="386.7940397262573" cy="304.8555054664612" rx="10.861178398132324" ry="6.576696872711182" fill="#FFFFFF" fill-opacity="1"/></g><g transform="matrix(0.711351215839386,-0.7028366923332214,0.711351215839386,0.7028367519378662,-126.14879461073724,357.2218151686393)"><ellipse cx="380.6900358200073" cy="333.9809937477112" rx="10.861178398132324" ry="6.576696872711182" fill="#FFFFFF" fill-opacity="1"/></g><g transform="matrix(0.7113511562347412,-0.7028367519378662,0.7113510966300964,0.702836811542511,-111.74890099809272,376.73594879329903)"><ellipse cx="409.4664945602417" cy="324.9692645072937" rx="8.6332426071167" ry="5.227077007293701" fill="#FFFFFF" fill-opacity="1"/></g><g transform="matrix(0.866585910320282,-0.49902793765068054,0.5009727478027344,0.8654630780220032,-154.02999704747344,150.23881652290584)"><rect x="203.55712890625" y="361.671142578125" width="14.009346961975098" height="149.2393798828125" rx="0" fill="#8EADEA" fill-opacity="1"/></g><g><g><ellipse cx="215.87354469299316" cy="362.1886348724365" rx="12.316415786743164" ry="12.168996810913086" fill="#335088" fill-opacity="1"/></g><g><ellipse cx="215.8739161491394" cy="362.0558671951294" rx="5.490127086639404" ry="5.424412727355957" fill="#8EADEA" fill-opacity="1"/></g></g></g><g clip-path="url(#master_svg5_3_2465)"><g><path d="M270.57081796875,388.0655521875Q271.68356796875,389.1796521875,271.68356796875,390.7557521875L275.94206796875,390.7557521875Q275.94206796875,387.4172121875,273.58386796875,385.0561271875Q271.22453796875,382.6939921875,267.88742796875,382.6939921875L267.39759796875,382.6939921875Q264.06030796875,382.6895221875,261.69885496875,385.0538041875Q259.33845796875,387.4170221875,259.34291796875,390.75859218749997L259.34291796875,415.3637421875Q259.34291796875,418.7023421875,261.70118096875,421.0634421875Q264.06050796875,423.4255421875,267.39760796875,423.4255421875L267.88742796875,423.4255421875L267.88742796875,419.1670421875L267.39758796875,419.1670421875Q265.82592796875,419.1670421875,264.71420796875,418.0540421875Q263.60143796875,416.9398421875,263.60142796875,415.3637421875L263.60142796875,390.7529121875Q263.59932796875,389.1771121875,264.71187796875,388.0632321875Q265.82337796875,386.9504021875,267.39759796875,386.9525121875L267.88742796875,386.9525121875Q269.45910796875,386.9525121875,270.57081796875,388.0655521875Z" fill-rule="evenodd" fill="#90A0B8" fill-opacity="1"/></g><g><path d="M305.490234375,425.362599375L305.490234375,427.395479375L309.748734375,427.395479375L309.748734375,425.362599375Q309.748734375,422.469659375,307.705234375,420.423654675Q305.660634375,418.376599375,302.768534375,418.376599375L295.966174375,418.376599375Q293.084094375,418.376599375,291.041552075,420.411593775Q289.000044375,422.445559375,288.986004375,425.328509375L288.985974375,427.371749375Q288.985974375,430.264699375,291.029531375,432.310659375Q293.074134375,434.357759375,295.966174375,434.357759375L295.966174375,430.099229375Q294.839564375,430.099229375,294.042554375,429.301269375Q293.244494375,428.502249375,293.244494375,427.371749375L293.244464375,425.349249375Q293.249954375,424.222689375,294.047194375,423.428389375Q294.843414375,422.635119375,295.966174375,422.635119375L302.768534375,422.635119375Q303.895134375,422.635119375,304.692134375,423.433079375Q305.490234375,424.232099375,305.490234375,425.362599375Z" fill-rule="evenodd" fill="#90A0B8" fill-opacity="1"/></g><g><path d="M307.4655390625,654.10726171875L238.4775390625,654.10726171875L246.4126190625,471.84326171875L300.4125390625,471.84326171875L307.4655390625,654.10726171875Z" fill="#335088" fill-opacity="1"/></g><g><path d="M360.900653125,463.687669921875L292.189453125,469.493569921875L292.189453125,452.961669921875L360.900653125,452.961669921875L360.900653125,463.687669921875Z" fill="#8EADEA" fill-opacity="1"/></g><g><rect x="255.245849609375" y="414.97021484375" width="40.75107955932617" height="57.02323532104492" rx="0" fill="#335088" fill-opacity="1"/></g><g><path d="M300.705810546875,435.021728515625L342.942210546875,435.021728515625L342.942210546875,447.511628515625C342.942210546875,450.525928515625,340.501510546875,452.96952851562503,337.49081054687497,452.96952851562503L306.157200546875,452.96952851562503C303.146480546875,452.96952851562503,300.705810546875,450.525928515625,300.705822602175,447.511628515625L300.705810546875,435.021728515625Z" fill="#457ECD" fill-opacity="1"/></g><g><path d="M394.670106640625,405.991943359375L394.672106640625,405.991943359375L394.672106640625,429.104943359375Q394.672106640625,429.351243359375,394.651806640625,429.596743359375Q394.631406640625,429.842143359375,394.591006640625,430.085043359375Q394.55050664062503,430.328043359375,394.490106640625,430.566743359375Q394.429706640625,430.805543359375,394.349806640625,431.038543359375Q394.270006640625,431.271443359375,394.171106640625,431.49704335937497Q394.072306640625,431.722643359375,393.955206640625,431.939343359375Q393.838206640625,432.156043359375,393.703606640625,432.362243359375Q393.569006640625,432.568543359375,393.417906640625,432.763043359375Q393.266806640625,432.957543359375,393.100206640625,433.138843359375Q392.933606640625,433.320243359375,392.75250664062503,433.487143359375Q392.571506640625,433.654143359375,392.377306640625,433.805643359375Q392.183106640625,433.957143359375,391.977106640625,434.092143359375Q391.771106640625,434.227043359375,391.554706640625,434.344543359375Q391.338206640625,434.462043359375,391.112806640625,434.561343359375Q390.887406640625,434.660543359375,390.654606640625,434.740943359375Q390.421806640625,434.821243359375,390.18320664062503,434.882043359375L358.313726640625,443.008043359375L358.313726640625,457.470243359375L358.311806640625,457.470243359375Q358.311806640625,457.616543359375,358.304626640625,457.762743359375Q358.297446640625,457.908843359375,358.283106640625,458.054443359375Q358.268766640625,458.200043359375,358.247296640625,458.344743359375Q358.225826640625,458.489543359375,358.197286640625,458.633043359375Q358.168746640625,458.776543359375,358.133196640625,458.918443359375Q358.097646640625,459.060343359375,358.055166640625,459.200343359375Q358.012696640625,459.34034335937497,357.963406640625,459.478143359375Q357.914116640625,459.615843359375,357.858126640625,459.751043359375Q357.802136640625,459.886243359375,357.739586640625,460.01854335937503Q357.677026640625,460.150743359375,357.608056640625,460.279843359375Q357.539086640625,460.408843359375,357.463866640625,460.534343359375Q357.388646640625,460.65984335937503,357.307366640625,460.781443359375Q357.226076640625,460.903143359375,357.138926640625,461.020643359375Q357.051766640625,461.138143359375,356.958946640625,461.251243359375Q356.866126640625,461.36434335937497,356.767876640625,461.472743359375Q356.669616640625,461.581143359375,356.566166640625,461.684643359375Q356.462706640625,461.788043359375,356.354296640625,461.886343359375Q356.245886640625,461.984543359375,356.132786640625,462.077443359375Q356.019686640625,462.170243359375,355.902176640625,462.257343359375Q355.784656640625,462.344543359375,355.663006640625,462.425843359375Q355.541356640625,462.507143359375,355.415856640625,462.582343359375Q355.290366640625,462.657543359375,355.161326640625,462.726543359375Q355.032296640625,462.795443359375,354.900036640625,462.858043359375Q354.767776640625,462.920543359375,354.632596640625,462.976543359375Q354.497426640625,463.032543359375,354.359666640625,463.081843359375Q354.221916640625,463.131143359375,354.081906640625,463.173643359375Q353.941896640625,463.216143359375,353.799966640625,463.251643359375Q353.658046640625,463.287243359375,353.514546640625,463.315743359375Q353.371046640625,463.344243359375,353.226320640625,463.365743359375Q353.081593640625,463.387243359375,352.935988640625,463.401543359375Q352.790383640625,463.415943359375,352.644249640625,463.423043359375Q352.498116640625,463.430243359375,352.351806640625,463.430243359375Q352.205496640625,463.430243359375,352.059363640625,463.423043359375Q351.913229640625,463.415943359375,351.767624640625,463.401543359375Q351.622019640625,463.387243359375,351.477293640625,463.365743359375Q351.332566640625,463.344243359375,351.189066640625,463.315743359375Q351.045566640625,463.287243359375,350.903646640625,463.251643359375Q350.761716640625,463.216143359375,350.621706640625,463.173643359375Q350.481696640625,463.131143359375,350.343946640625,463.081843359375Q350.206186640625,463.032543359375,350.071016640625,462.976543359375Q349.935836640625,462.920643359375,349.803576640625,462.858043359375Q349.671316640625,462.795443359375,349.542286640625,462.726543359375Q349.413246640625,462.657543359375,349.287756640625,462.582343359375Q349.162256640625,462.507143359375,349.040606640625,462.425843359375Q348.918956640625,462.344543359375,348.801436640625,462.257343359375Q348.683926640625,462.170243359375,348.570826640625,462.077443359375Q348.457726640625,461.984643359375,348.349316640625,461.886343359375Q348.240906640625,461.788043359375,348.137446640625,461.684643359375Q348.033996640625,461.581143359375,347.935736640625,461.472743359375Q347.837486640625,461.36434335937497,347.744666640625,461.251243359375Q347.651846640625,461.138143359375,347.564686640625,461.020643359375Q347.477536640625,460.903143359375,347.396246640625,460.781443359375Q347.314966640625,460.65984335937503,347.239746640625,460.534343359375Q347.164526640625,460.408843359375,347.095556640625,460.279843359375Q347.026586640625,460.150743359375,346.964026640625,460.01854335937503Q346.901476640625,459.886243359375,346.845486640625,459.751043359375Q346.789496640625,459.615843359375,346.740206640625,459.478143359375Q346.690916640625,459.34034335937497,346.648446640625,459.200343359375Q346.605966640625,459.060343359375,346.570416640625,458.918443359375Q346.534866640625,458.776543359375,346.506326640625,458.633043359375Q346.477786640625,458.489543359375,346.456316640625,458.344743359375Q346.434846640625,458.200043359375,346.420506640625,458.054443359375Q346.406166640625,457.908843359375,346.398986640625,457.762743359375Q346.391806640625,457.616543359375,346.391806640625,457.470243359375L346.389886640625,457.470243359375L346.389886640625,438.375543359375Q346.389886640625,438.129243359375,346.410196640625,437.883743359375Q346.430506640625,437.63834335937497,346.470996640625,437.395443359375Q346.511486640625,437.152443359375,346.571866640625,436.913743359375Q346.632256640625,436.674943359375,346.712126640625,436.441943359375Q346.791996640625,436.209043359375,346.890816640625,435.983443359375Q346.989626640625,435.757843359375,347.106706640625,435.541143359375Q347.223796640625,435.324543359375,347.358346640625,435.118243359375Q347.492906640625,434.911943359375,347.644016640625,434.717443359375Q347.79512664062497,434.522943359375,347.961766640625,434.341643359375Q348.128396640625,434.160343359375,348.309426640625,433.993343359375Q348.490446640625,433.826343359375,348.684626640625,433.674843359375Q348.878806640625,433.523343359375,349.084816640625,433.38834335937497Q349.290836640625,433.253443359375,349.507276640625,433.135943359375Q349.723716640625,433.018443359375,349.949116640625,432.91914335937497Q350.174506640625,432.819943359375,350.407326640625,432.739543359375Q350.640136640625,432.659243359375,350.878786640625,432.598443359375L382.74820664062497,424.472443359375L382.74820664062497,405.991943359375L382.750106640625,405.991943359375Q382.750106640625,405.845633359375,382.757306640625,405.699500359375Q382.764506640625,405.553366359375,382.778806640625,405.407761359375Q382.793206640625,405.262156359375,382.814706640625,405.117430359375Q382.836106640625,404.972703359375,382.864706640625,404.829203359375Q382.893206640625,404.685703359375,382.928806640625,404.543783359375Q382.964306640625,404.401853359375,383.006806640625,404.261843359375Q383.049306640625,404.121833359375,383.098506640625,403.984083359375Q383.147806640625,403.846323359375,383.203806640625,403.711153359375Q383.259806640625,403.575973359375,383.322406640625,403.443713359375Q383.384906640625,403.311453359375,383.453906640625,403.182423359375Q383.522906640625,403.053383359375,383.598106640625,402.927893359375Q383.673306640625,402.802393359375,383.754606640625,402.680743359375Q383.835906640625,402.559093359375,383.923006640625,402.441573359375Q384.01020664062503,402.324063359375,384.103006640625,402.210963359375Q384.195806640625,402.097863359375,384.294106640625,401.989453359375Q384.392306640625,401.881043359375,384.495806640625,401.777583359375Q384.59920664062497,401.674133359375,384.707706640625,401.575873359375Q384.816106640625,401.477623359375,384.929206640625,401.384803359375Q385.042306640625,401.291983359375,385.159806640625,401.204823359375Q385.277306640625,401.117673359375,385.398906640625,401.036383359375Q385.520606640625,400.955103359375,385.646106640625,400.879883359375Q385.771606640625,400.804663359375,385.900606640625,400.735693359375Q386.029706640625,400.666723359375,386.161906640625,400.604163359375Q386.294206640625,400.541613359375,386.429406640625,400.485623359375Q386.564506640625,400.429633359375,386.702306640625,400.380343359375Q386.840006640625,400.331053359375,386.980106640625,400.288583359375Q387.120106640625,400.246103359375,387.26200664062503,400.210553359375Q387.403906640625,400.175003359375,387.547406640625,400.146463359375Q387.69090664062503,400.117923359375,387.835606640625,400.096453359375Q387.980406640625,400.074983359375,388.126006640625,400.060643359375Q388.271606640625,400.046303359375,388.417706640625,400.039123359375Q388.563806640625,400.031943359375,388.710106640625,400.031943359375Q388.856506640625,400.031943359375,389.002606640625,400.039123359375Q389.148706640625,400.046303359375,389.294306640625,400.060643359375Q389.439906640625,400.074983359375,389.584706640625,400.096453359375Q389.72940664062503,400.117923359375,389.872906640625,400.146463359375Q390.016406640625,400.175003359375,390.158306640625,400.210553359375Q390.300206640625,400.246103359375,390.440206640625,400.288583359375Q390.580306640625,400.331053359375,390.718006640625,400.380343359375Q390.855806640625,400.429633359375,390.990906640625,400.485623359375Q391.126106640625,400.541613359375,391.258406640625,400.604163359375Q391.390606640625,400.666723359375,391.51970664062503,400.735693359375Q391.648706640625,400.804663359375,391.774206640625,400.879883359375Q391.899706640625,400.955103359375,392.02130664062497,401.036383359375Q392.143006640625,401.117673359375,392.260506640625,401.204823359375Q392.378006640625,401.291983359375,392.491106640625,401.384803359375Q392.604206640625,401.477623359375,392.712606640625,401.575873359375Q392.821006640625,401.674133359375,392.924506640625,401.777583359375Q393.028006640625,401.881043359375,393.126206640625,401.989453359375Q393.224506640625,402.097863359375,393.317306640625,402.210963359375Q393.41010664062503,402.324063359375,393.49730664062497,402.441573359375Q393.584406640625,402.559093359375,393.665706640625,402.680743359375Q393.747006640625,402.802393359375,393.822206640625,402.927893359375Q393.897406640625,403.053383359375,393.966406640625,403.182423359375Q394.035406640625,403.311453359375,394.097906640625,403.443713359375Q394.160506640625,403.575973359375,394.21650664062497,403.711153359375Q394.272506640625,403.846323359375,394.321706640625,403.984083359375Q394.371006640625,404.121833359375,394.413506640625,404.261843359375Q394.456006640625,404.401853359375,394.491506640625,404.543783359375Q394.527106640625,404.685703359375,394.555606640625,404.829203359375Q394.584206640625,404.972703359375,394.605606640625,405.117429359375Q394.627106640625,405.262156359375,394.641506640625,405.407761359375Q394.655806640625,405.553366359375,394.663006640625,405.699500359375Q394.670106640625,405.845633359375,394.670106640625,405.991943359375Z" fill-rule="evenodd" fill="#8EADEA" fill-opacity="1"/></g><g><path d="M421.84966484375,419.1305546875L389.62026484375,424.8144546875C389.01866484375,424.9205546875,388.40296484375,424.9178546875,387.80226484375,424.8066546875L357.30625484375,419.1597546875C354.88397484375,418.7112546875,353.12646484375,416.5984546875,353.12646484375,414.1349546875L353.12646484375,405.5116146875C353.12646484375,402.9171946875,355.07053484375,400.7344946875,357.64766484375,400.4354646875L388.16566484375,396.8942790875C388.52786484375,396.8522501875,388.89356484375,396.8491093875,389.25646484375,396.8849101875L421.46386484375,400.0624546875C424.07916484375,400.3204746875,426.07236484375,402.5199946875,426.07236484375,405.1479846875L426.07236484375,414.0979546875C426.07236484375,416.5778546875,424.29186484375,418.6998546875,421.84966484375,419.1305546875" fill="#6383C2" fill-opacity="1"/></g><g><path d="M389.50054203125,385.701905805585C393.95118203125,385.701907314305,397.55908203125,389.314164296875,397.55908203125,393.770114296875L397.55908203125,414.106704296875L381.43408203125,414.106704296875L381.43408203125,393.738474296875C381.45148983125,389.291804296875,385.05916203125,385.697520726875,389.50054203125,385.701905805585Z" fill="#F5F4F5" fill-opacity="1"/></g><g><path d="M366.22660234375,373.046142578125L357.53595234375,373.046142578125C356.40606034375,373.114952678125,355.52490234375,374.052462578125,355.52490234375,375.185802578125C355.52490234375,376.319142578125,356.40606034375,377.256652578125,357.53595234375,377.325452578125L360.84629234375,377.325452578125L360.84629234375,390.535142578125C359.83922234375,390.918842578125,359.17299234375,391.884742578125,359.17137234375,392.963542578125L359.17137234375,411.646942578125L360.32485234375,411.646942578125L360.32485234375,523.613142578125L363.15325234375,523.613142578125L363.15325234375,411.646942578125L364.37784234375,411.646942578125L364.37784234375,392.963542578125C364.37725234375,391.882042578125,363.70666234375,390.914342578125,362.69502234375,390.535142578125L362.69502234375,377.325452578125L365.95790234375,377.325452578125C366.39430234375,377.325452578125,366.74800234375,376.971312578125,366.74800234375,376.534452578125L366.74800234375,373.591933578125C366.74830234375,373.299528578125,366.51840234375,373.058849578125,366.22660234375,373.046142578125Z" fill="#F4F4F4" fill-opacity="1"/></g><g><path d="M420.23397875,392.963542578125C420.23947875,391.795942578125,419.46752875,390.767542578125,418.34575875,390.448142578125C418.34575875,389.285342578125,418.34575875,388.075142578125,418.34575875,386.801642578125C418.37735875,379.215952578125,417.99812875,373.046142578125,417.48459875,373.046142578125C416.97106875,373.046142578125,416.59182875,379.215952578125,416.59182875,386.817442578125C416.59182875,388.114742578125,416.59182875,389.364442578125,416.59182875,390.55894257812497C415.64057075,390.964842578125,415.02008513,391.896642578125,415.01171875,392.931942578125L415.01171875,411.646942578125L416.19679875,411.646942578125L416.19679875,523.613142578125L419.02518875,523.613142578125L419.02518875,411.646942578125L420.21027875,411.646942578125L420.23397875,392.963542578125Z" fill="#F4F4F4" fill-opacity="1"/></g><g><path d="M373.264605546875,383.376708984375C370.728515546875,383.376708984375,368.690185546875,383.962048984375,368.690185546875,384.658128984375C368.690185546875,385.354208984375,370.775935546875,385.947458984375,373.343615546875,385.947458984375L373.343615546875,409.558808984375L373.059195546875,409.558808984375L373.059195546875,523.613708984375L375.879695546875,523.613708984375L375.879695546875,385.860448984375L378.004935546875,385.860448984375L378.004935546875,383.376708984375L373.264605546875,383.376708984375Z" fill="#F4F4F4" fill-opacity="1"/></g><g><ellipse cx="404.67007541656494" cy="381.52467453479767" rx="1.7223215103149414" ry="1.7243815660476685" fill-opacity="0" stroke-opacity="1" stroke="#BF0076" fill="none" stroke-width="0.42585158348083496" stroke-linecap="SQUARE" stroke-linejoin="round"/></g><g><path d="M409.417599296875,381.525024921875C409.411959296875,379.087394921875,407.562749296875,377.050433921875,405.139639296875,376.812681721875C402.716499296875,376.574928921875,400.507507296875,378.213704921875,400.029273796875,380.603854921875C399.551064296875,382.994014921875,400.959149296875,385.358224921875,403.286759296875,386.073274921875L403.286759296875,523.612794921875L406.146759296875,523.612794921875L406.146759296875,386.057454921875C408.104609296875,385.418334921875,409.426379296875,383.586754921875,409.417599296875,381.525024921875Z" fill="#F4F4F4" fill-opacity="1"/></g><g><path d="M360.877854921875,411.748686171875L360.783044921875,411.685396171875C359.983804921875,411.345966171875,359.464424921875,410.56129617187503,359.463654921875,409.692076171875L359.463654921875,406.528076171875L357.883544921875,406.528076171875L357.883544921875,409.692076171875C357.884473179875,411.005606171875,358.570467921875,412.223286171875,359.692764921875,412.903546171875L359.692764921875,421.976276171875C359.692764921875,422.461276171875,360.085394921875,422.854376171875,360.569734921875,422.854376171875C361.054064921875,422.854376171875,361.446694921875,422.461276171875,361.446694921875,421.976276171875L361.446694921875,412.595056171875C361.459474921875,412.219556171875,361.230094921875,411.878256171875,360.877854921875,411.748686171875Z" fill="#AFB0C4" fill-opacity="1"/></g><g><path d="M417.0421615625,411.748686171875L416.9473515625,411.685396171875C416.1481115625,411.345966171875,415.6287315625,410.56129617187503,415.6279615625,409.692076171875L415.6279615625,406.528076171875L414.0478515625,406.528076171875L414.0478515625,409.692076171875C414.0487798205,411.005606171875,414.7347745625,412.223286171875,415.8570715625,412.903546171875L415.8570715625,421.976276171875C415.8570715625,422.461276171875,416.2497015625,422.854376171875,416.7340415625,422.854376171875C417.2183715625,422.854376171875,417.6110015625,422.461276171875,417.6110015625,421.976276171875L417.6110015625,412.595056171875C417.6237815625,412.219556171875,417.3944015625,411.878256171875,417.0421615625,411.748686171875Z" fill="#AFB0C4" fill-opacity="1"/></g><g><path d="M362.883476703125,411.748773671875C362.911854703125,411.723203671875,362.943789703125,411.701893671875,362.978279703125,411.685493671875C363.770895703125,411.337683671875,364.280435703125,410.550673671875,364.273965703125,409.684263671875L364.273965703125,406.520263671875L365.854085703125,406.520263671875L365.854085703125,409.684263671875C365.853165703125,410.997783671875,365.167175703125,412.215463671875,364.044855703125,412.895733671875L364.044855703125,421.976463671875C364.002015703125,422.427063671875,363.623985703125,422.771263671875,363.171851703125,422.771263671875C362.719717703125,422.771263671875,362.341687703125,422.427063671875,362.298831076125,421.976463671875L362.298831076125,412.595153671875C362.283098903125,412.213973671875,362.521697703125,411.868553671875,362.883476703125,411.748773671875Z" fill="#AFB0C4" fill-opacity="1"/></g><g><path d="M419.048515765625,411.748773671875C419.076893765625,411.723203671875,419.108828765625,411.701893671875,419.143318765625,411.685493671875C419.935934765625,411.337683671875,420.445474765625,410.550673671875,420.439004765625,409.684263671875L420.439004765625,406.520263671875L422.019124765625,406.520263671875L422.019124765625,409.684263671875C422.018204765625,410.997783671875,421.332214765625,412.215463671875,420.209894765625,412.895733671875L420.209894765625,421.976463671875C420.167054765625,422.427063671875,419.789024765625,422.771263671875,419.336890765625,422.771263671875C418.884756765625,422.771263671875,418.506726765625,422.427063671875,418.463870138625,421.976463671875L418.463870138625,412.595153671875C418.448137965625,412.213973671875,418.686736765625,411.868553671875,419.048515765625,411.748773671875Z" fill="#AFB0C4" fill-opacity="1"/></g><g><path d="M389.557025625,388.573004081725C392.668115625,388.573005590445,395.190115625,391.098048046875,395.190115625,394.212838046875L395.190115625,411.401298046875L383.916015625,411.401298046875L383.916015625,394.212838046875C383.916015625,391.094948046875,386.442855625,388.568627306875,389.557025625,388.573004081725Z" fill="#495D7B" fill-opacity="1"/></g><g><rect x="372.174072265625" y="406.268310546875" width="1.5801112651824951" height="16.61101531982422" rx="0" fill="#AFB0C4" fill-opacity="1"/></g><g><rect x="375.33447265625" y="406.268310546875" width="1.5801112651824951" height="16.61101531982422" rx="0" fill="#AFB0C4" fill-opacity="1"/></g><g><rect x="402.1962890625" y="406.268310546875" width="1.5801112651824951" height="16.61101531982422" rx="0" fill="#AFB0C4" fill-opacity="1"/></g><g><rect x="405.356689453125" y="406.268310546875" width="1.5801112651824951" height="16.61101531982422" rx="0" fill="#AFB0C4" fill-opacity="1"/></g></g><g><g><g><path d="M248.452880859375,593.1982686157227L383.551880859375,561.3237686157227L428.587880859375,593.1982686157227L425.009880859375,596.9957686157227L421.755880859375,598.4901686157226L272.511080859375,633.1951686157227L248.452880859375,593.1982686157227Z" fill="#14365C" fill-opacity="1"/></g><g><path d="M478.764201171875,514.6823614282226Q458.135201171875,545.6250514282226,454.156201171875,545.2734514282226Q450.177201171875,544.9218514282227,329.371601171875,507.64115142822266Q312.111101171875,511.83424142822264,320.444641171875,524.7299514282226C328.778201171875,537.6256514282227,379.076101171875,590.3952514282227,425.805201171875,599.3879514282227Q441.285201171875,605.9897514282227,461.52120117187496,581.1036514282226Q481.757201171875,556.2176514282227,483.24920117187503,509.13557142822265L478.764201171875,514.6823614282226Z" fill="#335088" fill-opacity="1"/></g><g><path d="M141.38330078125,517.2823033813477C141.38330078125,513.0716033813477,146.15654078125,509.30050338134765,149.83900078125,507.77090338134764C150.99321078125,507.2859033813477,152.20440078125,506.9521033813477,153.44290078125,506.77760338134766C176.68960078125,503.78880338134763,199.52610078125,498.07500338134764,222.77270078125,495.14770338134764C272.36330078125,488.8976433813477,297.16330078125,485.76821138134767,315.43630078125,486.35717558134763C333.94030078125,486.9292523813477,352.36230078125004,489.0759333813477,370.50730078125,492.7742633813477C420.41230078125,499.2001033813477,456.74830078125,509.3708033813476,461.68730078125,518.7063033813477C463.41530078125,521.9495033813477,464.31430078125,525.5745033813477,464.30530078125,529.2550033813477C463.90430078125,532.3317033813477,462.65630078125,538.1862033813477,457.98730078125,542.4408033813477C452.68230078125,547.2932033813477,445.77130078125,547.5393033813476,441.03230078125,547.4162033813477C420.70030078125,546.9064033813477,398.78030078125,538.3444033813477,387.41030078125,533.9140033813477C353.68330078125,520.7721033813476,345.12330078125,517.5724033813476,331.09130078124997,515.5418033813477C323.90930078125,514.5045033813476,318.43830078125,514.3111033813476,307.53030078125,513.9243033813476C285.06730078124997,513.2005033813476,262.58130078125,514.1643033813476,240.26000078125,516.8076033813477C227.88620078125,518.2229033813477,205.67800078125,520.8776033813476,186.87300078125,524.2180033813477C179.99680078125,525.4399033813477,172.96350078125,525.4223033813477,166.03480078125,526.2838033813476C157.63150078125,527.3387033813476,152.47430078125,528.2529033813477,147.40438078125,525.2202033813477C146.42705078125,524.6839033813477,141.38330078125,521.7039033813477,141.38330078125,517.2823033813477Z" fill="#8EADEA" fill-opacity="1"/></g><g><path d="M423.79737140625,552.7357373657227Q417.79373140625,552.8587373657226,421.78161140625,546.3537373657226C425.76950140625,539.8487373657226,440.90074140625,513.4951373657227,442.96014140625,511.07783736572264C445.01954140625,508.6603373657226,446.60764140625,507.4033373657227,454.80164140625,506.89343736572266C462.99554140625,506.3836373657227,468.64134140625,506.8231373657227,475.69214140625,503.76403736572263Q482.74294140625,500.7049373657227,474.53154140624997,480.6449373657226L509.08734140625,458.45763736572263L540.41494140625,418.84746736572265L540.83094140625,418.61236736572266Q544.80294140625,414.85138736572264,550.19994140625,417.76076736572264C553.18094140625,420.7417273657227,551.20894140625,427.06663736572267,547.12494140625,433.02663736572265Q543.04094140625,438.9866373657227,490.11654140625,516.6067373657227L457.60274140625,524.2637373657227Q449.74914140625,550.4947373657226,446.98294140625,553.5007373657227Q444.21664140625,556.5077373657226,423.79737140625,552.7357373657227Z" fill="#14365C" fill-opacity="1"/></g><g><path d="M549.686178359375,408.38085338134766Q546.623268359375,416.60875338134764,549.851978359375,418.38445338134767C553.080688359375,420.16015338134764,557.478678359375,416.28345338134767,561.344368359375,411.51025338134764Q565.210168359375,406.73695338134763,579.896368359375,387.98676338134766Q580.699168359375,380.45327778134765,575.533268359375,380.50601889334763Q570.367268359375,380.55875998134763,549.686178359375,408.38085338134766Z" fill="#14365C" fill-opacity="1"/></g><g transform="matrix(0.9966957569122314,0.0812254473567009,-0.0812254473567009,0.9966957569122314,34.415775777313854,-37.18494459685098)"><path d="M539.279232421875,419.29634478759766L544.628432421875,411.49037478759766Q545.387632421875,406.7346947875977,541.391032421875,404.83593778759763C537.394432421875,402.93717478759766,532.987732421875,407.89504478759767,531.0417324218749,410.89261478759767Q529.095832421875,413.89018478759766,507.681732421875,446.73164478759765Q489.880232421875,454.0365447875977,481.415822421875,467.21354478759764C472.951392421875,480.39064478759764,472.750702421875,495.34334478759763,476.860742421875,500.69674478759765C480.970772421875,506.0503447875976,486.093032421875,499.8177447875977,487.707432421875,494.27964478759765C489.321732421875,488.74164478759764,488.580032421875,480.2147447875976,498.772232421875,471.52094478759767C504.811232421875,466.46614478759767,510.515832421875,461.01904478759764,515.849432421875,455.2145447875977Q517.882632421875,453.06084478759766,539.279232421875,419.29634478759766Z" fill="#8EADEA" fill-opacity="1"/></g><g><path d="M556.354774609375,400.95036588134764Q552.427984609375,406.22476588134765,547.305704609375,404.23806588134767C542.183424609375,402.2513658813477,542.366664609375,395.58816588134766,546.206194609375,391.29836588134765C550.045724609375,387.00856588134764,570.831574609375,365.04106588134766,572.140474609375,364.30266588134765C573.449474609375,363.56425888134766,579.898174609375,361.3050858813477,583.781274609375,364.4521058813477C587.664374609375,367.59911588134764,586.940174609375,373.33936588134765,584.365974609375,374.28866588134764Q581.791674609375,375.23806588134767,576.9224746093751,375.0622658813477Q569.714574609375,384.6879658813477,566.450974609375,388.5029658813477Q563.187474609375,392.31806588134765,556.354774609375,400.95036588134764Z" fill="#8EADEA" fill-opacity="1"/></g><g><path d="M184.141845703125,654.0719065063477Q196.149145703125,593.9797965063476,217.249145703125,588.1428985063477Q244.300345703125,587.7473145063476,256.342545703125,588.1428985063477Q284.562845703125,628.8343065063476,291.840845703125,640.1916065063476Q299.118845703125,651.5490065063476,301.192845703125,654.1073065063476L231.180945703125,654.0720065063476L218.427145703125,654.1071065063477L184.141845703125,654.0719065063477Z" fill="#8EADEA" fill-opacity="1"/></g><g><path d="M229.518633203125,642.8298721313477L430.90203320312503,642.8298721313477C437.066033203125,642.8298453047477,442.063033203125,647.8635621313476,442.063033203125,654.0729721313477L218.384033203125,654.0729721313477C218.384019888025,647.8738621313477,223.364963203125,642.8444121313477,229.518633203125,642.8298721313477Z" fill="#8EADEA" fill-opacity="1"/></g><g><ellipse cx="455.69160652160645" cy="517.3635587692261" rx="4.310747146606445" ry="4.342524528503418" fill="#113559" fill-opacity="1"/></g></g><g><g><path d="M508.8856861621094,368.1826171875L502.5440471621094,388.6216171875L502.1990661621094,399.1517171875L521.6196661621094,400.6589171875L532.9737661621094,376.6250271875L508.8856861621094,368.1826171875Z" fill="#FFB2AE" fill-opacity="1"/></g><g><g mask="url(#master_svg6_3_2435)"><g><path d="M500.91086661328126,379.20013307495117Q523.0000786132813,381.76653307495116,527.9820786132813,379.20013307495117Q532.9639786132813,376.63383307495116,516.5771786132813,366.2259330749512L500.71807861328125,367.29523307495117L500.91086661328126,379.20013307495117Z" fill="#F2918F" fill-opacity="1"/></g></g></g><g><path d="M246.12852514648438,473.157561328125Q237.10812514648438,462.668161328125,234.32802514648438,458.961261328125C231.54782514648437,455.254341328125,225.46999514648437,444.143771328125,219.45304514648438,446.343474328125C213.43610514648438,448.543181328125,223.12612514648438,468.269261328125,223.00436514648436,476.803361328125C222.88260514648437,485.337461328125,223.16671514648436,493.759461328125,231.12162514648438,492.455961328125Q239.0766251464844,491.152361328125,246.98082514648436,484.899561328125L246.12852514648438,473.157561328125Z" fill="#1C4B6E" fill-opacity="1"/></g><g><path d="M535.9356337402344,339.983783609375Q522.4305337402344,336.928624609375,505.49582374023436,360.74867460937503Q499.29625374023436,369.791874609375,507.1497237402344,374.374674609375C515.0032337402344,378.957374609375,528.2546337402343,383.387374609375,532.6887337402344,382.705074609375Q537.1228337402343,382.02267460937503,552.8298337402343,359.098874609375L535.9356337402344,339.983783609375Z" fill="#FFB2AE" fill-opacity="1"/></g><g><path d="M283.90490756835936,468.962158203125L244.35343756835937,470.785058203125L241.45150756835938,487.944858203125L283.4078075683594,491.224058203125L283.90490756835936,468.962158203125Z" fill="#FFB2AE" fill-opacity="1"/></g><g><path d="M528.4077575683593,360.56541015625Q522.1980275683594,338.36461015625,531.7764375683594,330.58414015625Q541.3548575683594,322.80368015625,541.8621575683594,326.20508015625Q537.8035575683593,326.60225015625,544.4698575683594,332.06079015625C551.1362575683594,337.51931015625,575.3257575683593,347.15321015625,568.2028575683594,365.91191015625C561.0799575683594,384.67061015625,532.4055275683594,388.42841015625,528.1540875683594,388.06181015625C523.9026575683594,387.69511015625,524.2375105683594,374.04881015625,529.5137275683594,370.98351015625C534.7899575683593,367.91811015625,543.0188575683594,367.15431015625,537.5397575683594,360.79961015624997Q532.0605475683594,354.44491015625,528.4077575683593,360.56541015625Z" fill="#1D4D6F" fill-opacity="1"/></g><g><path d="M281.75353264648436,469.194998046875Q280.73887264648437,480.845298046875,279.7242126464844,492.505798046875C295.5709126464844,491.883798046875,311.4395126464844,492.118398046875,327.2611126464844,493.208498046875C349.3188126464844,494.787298046875,371.27461264648434,497.568198046875,393.0312126464844,501.538898046875C431.7612126464844,509.044398046875,445.30721264648434,516.335998046875,456.5292126464844,507.934298046875C465.1132126464844,501.518498046875,467.3152126464844,489.705198046875,467.7812126464844,480.437898046875L428.8902126464844,456.760498046875Q366.6909126464844,457.066016046875,355.9456126464844,458.298258046875C345.2004126464844,459.530488046875,295.84721264648437,468.186798046875,281.75353264648436,469.194998046875Z" fill="#244992" fill-opacity="1"/></g><g><path d="M412.2395935058594,453.04470546875Q470.50149350585934,389.15127546875,496.0404935058594,391.11676636875L523.5175935058594,398.99906546875C523.8785935058594,401.91710546875,524.0005935058593,404.85990546875,523.8825935058594,407.79790546875C523.2525935058594,418.87030546875,519.5475935058594,429.54480546875,513.1885935058593,438.61420546875C512.4275935058594,439.70390546875,508.59179350585936,443.70610546875,500.96159350585935,451.64960546875C476.0008935058594,477.64890546875,478.9433935058594,473.48370546875003,476.8937935058594,476.19260546875C474.09339350585935,479.89950546875,471.0391935058594,484.45170546875,464.85989350585936,487.69020546875C462.1645935058594,489.09780546875,459.2637935058594,490.06710546875,456.2657935058594,490.56200546875C443.30849350585936,492.54810546875,432.12689350585936,482.86310546875,428.2813935058594,479.53290546875C420.38833350585935,472.53490546875,414.7950135058594,463.29910546875,412.2395935058594,453.04470546875Z" fill="#FF8017" fill-opacity="1"/></g><g><g mask="url(#master_svg7_3_2441)"><g><path d="M487.6685934326172,446.4657556152344Q502.1071934326172,435.2634856152344,505.5468934326172,430.6807556152344Q484.63469343261715,475.5405556152344,478.90189343261716,481.29445561523437Q473.1689934326172,487.04835561523436,442.2319934326172,498.26075561523436L419.0063934326172,469.5525556152344L424.4652734326172,463.4422556152344L454.8543934326172,462.31175561523435L487.6887934326172,446.4657556152344" fill="#ED6A07" fill-opacity="1"/></g></g></g><g><path d="M464.90974975585937,426.230224609375L487.6687497558594,446.465524609375Q463.9864497558594,476.283824609375,458.3854497558594,477.668824609375C452.78454975585936,479.053824609375,402.0007497558594,464.541824609375,399.2712497558594,465.244524609375C396.5418497558594,465.947224609375,393.7819497558594,470.142924609375,386.2937697558594,469.745824609375C378.80557975585936,469.348624609375,374.19899975585935,462.138424609375,377.46621975585936,458.309324609375C380.7334297558594,454.480224609375,387.4707497558594,452.433224609375,392.33094975585936,452.962824609375C397.19124975585936,453.492424609375,439.0663497558594,460.356324609375,442.94234975585937,458.054724609375Q446.81834975585934,455.753224609375,464.90974975585937,426.230224609375Z" fill="#FFB2AE" fill-opacity="1"/></g></g></g></g><g transform="matrix(-1,0,0,1,453.107421875,0)"><g><g><path d="M226.5537109375,287.599111328125L274.77801093749997,276.901611328125Q299.7613109375,342.934311328125,301.7680109375,347.343811328125Q303.7748109375,351.753211328125,252.1437109375,362.512811328125L226.5537109375,287.599111328125Z" fill="#FFD48E" fill-opacity="1"/></g><g><path d="M324.557889453125,632.932361484375Q310.743989453125,641.316521484375,306.94828945312497,642.667221484375C303.152559453125,644.018021484375,295.856689453125,644.219821484375,295.856689453125,649.685021484375L295.856689453125,653.194021484375L338.325189453125,653.194021484375Q343.769789453125,648.536121484375,342.416489453125,637.528091484375Q341.06308945312503,626.520051484375,324.557889453125,632.932361484375Z" fill="#023260" fill-opacity="1"/></g><g><path d="M376.06596328125,631.11630890625Q367.13666328125,638.39807890625,361.44306328125,641.09957890625C355.74946328125,643.80117890625,344.92236328125,644.60857890625,344.92236328125,650.02717890625L346.29130328125,653.25657890625L390.68876328125,653.25657890625Q393.13106328125,631.38022890625,390.68876328125,627.85575890625Q388.24646328125,624.33128890625,376.06596328125,631.11630890625Z" fill="#023260" fill-opacity="1"/></g><g><path d="M335.13623046875,483.276443828125Q356.91493046875,573.918123828125,359.27953046875,581.9454238281251Q361.64403046875,589.972423828125,371.35113046875,635.867423828125L394.34323046875,635.867423828125Q394.09433046875,566.092923828125,387.43623046875,530.413823828125Q380.77823046875,494.73472382812497,370.77553046875,474.659423828125L335.13623046875,483.276443828125Z" fill="#224FA9" fill-opacity="1"/></g><g><g mask="url(#master_svg8_3_2512)"><g><path d="M355.9525501953125,607.437208984375L396.8965501953125,522.8511089843751L372.9088501953125,452.564208984375L338.3273501953125,466.693008984375Q311.2128501953125,502.760308984375,313.9196331953125,508.070208984375Q316.6264201953125,513.380108984375,355.9525501953125,607.437208984375Z" fill="#0B3B87" fill-opacity="1"/></g></g></g><g><path d="M351.813169921875,489.57958984375C352.96426992187503,498.18106984375,353.539869921875,593.4185898437499,346.632869921875,623.81858984375L341.966069921875,635.86658984375L318.476169921875,635.86658984375Q308.131279921875,509.65488984374997,311.569212921875,495.88319984375L351.813169921875,489.57958984375Z" fill="#224FA9" fill-opacity="1"/></g><g><path d="M318.817626953125,231.473446171875Q320.808816953125,254.762626171875,319.813223953125,258.706326171875Q318.817626953125,262.649926171875,349.587826953125,251.284826171875Q337.687326953125,226.023766171875,334.202726953125,224.533254171875Q330.718126953125,223.042746171875,318.817626953125,231.473446171875Z" fill="#F5A980" fill-opacity="1"/></g><g><g mask="url(#master_svg9_3_2503)"><g><path d="M310.837646484375,238.955933203125Q321.229246484375,246.486133203125,344.050146484375,240.011733203125L338.014346484375,223.259033203125L310.837646484375,238.955933203125Z" fill="#ED845A" fill-opacity="1"/></g></g></g><g><path d="M312.859461875,197.28369140625Q302.934581875,204.22388140625,306.419181875,226.51939140625C309.903781875,248.81499140625,321.804271875,241.87479140624998,330.235771875,237.90009140625Q338.667271875,233.92539140625001,345.620871875,213.05829140625L312.859461875,197.28369140625Z" fill="#F5A980" fill-opacity="1"/></g><g transform="matrix(-1,0,0,1,792.21484375,0)"><path d="M396.107421875,488.5Q413.232421875,506.875,437.107421875,512Q460.982421875,517.125,491.607421875,509Q495.107421875,442.875,493.607421875,386.5C492.107421875,330.125,492.607421875,301.5,485.607421875,283.5Q478.607421875,265.5,472.107421875,256.5L446.607421875,246Q423.607421875,273.5,413.607421875,326.5Q403.607421875,379.5,396.107421875,488.5Z" fill="#E0ECF4" fill-opacity="1"/></g><g><g><g><path d="M298.607421875,389Q350.131821875,357.0908,352.107421875,337Q346.997221875,344.23948,342.107421875,347.5Q303.607421875,369,299.107421875,363Q300.130251875,364.1077,299.107421875,367Q299.107421875,368,299.107421875,368.5Q299.107421875,369,299.107421875,369.5L299.107421875,370Q299.107421875,372,299.107421875,374Q299.107421875,381,298.607421875,389Z" fill="#C7D9E7" fill-opacity="1"/></g></g></g><g><path d="M257.06068984375,335.404223046875Q249.78038984375,323.713043046875,248.75358984375,322.983313046875C247.72688984375,322.253583046875,243.66674984375,317.890739046875,243.99342984375,322.983313046875Q238.75098984375,321.865433046875,236.37088984375,318.713623046875C234.16359184375,321.658123046875,233.50414184375,325.480163046875,234.59747584375,328.991923046875C236.57311984375,334.659023046875,240.32216984375,342.142623046875,249.00248984375,342.965523046875C254.05228984375,343.440523046875,259.13568984375,343.440523046875,264.18538984375,342.965523046875L257.06068984375,335.404223046875Z" fill="#F5A980" fill-opacity="1"/></g><g><path d="M306.575748515625,196.24455C307.550838515625,194.27645,308.625608515625,192.35904,309.795878515625,190.49988C311.940878515625,188.06579,314.845678515625,186.42476,318.040678515625,185.84203C326.254378515625,183.9478404,343.397378515625,181.7276,347.706378515625,188.94726C348.397578515625,190.45604,349.333178515625,191.84088,350.475378515625,193.04617C351.518578515625,193.76172,352.615978515625,194.39505,353.757778515625,194.94035C356.693478515625,196.98445,358.665778515625,200.13625,359.217978515625,203.66604999999998C359.964678515625,207.11285,359.918078515625,210.69945,360.35357851562503,214.20835C361.042078515625,218.70675,362.135378515625,223.13405,363.620378515625,227.43655C365.175978515625,232.54475,366.902778515625,237.83915,370.589578515625,241.70515C375.614278515625,246.99955,376.143178515625,253.80005,380.732278515625,259.49805000000003C386.161378515625,266.26755,384.901278515625,276.37505,380.934478515625,284.09175C380.313778515625,285.05575,379.949678515625,286.16175,379.87667851562503,287.30575C380.082378515625,288.50175,380.621578515625,289.61475,381.432278515625,290.51975L384.356878515625,294.60275C376.043978515625,295.51575,368.12827851562497,290.83074999999997,364.942678515625,283.11334999999997C364.055978515625,280.76895,363.573678515625,278.12945,361.831478515625,276.35955C360.089178515625,274.58955000000003,357.957878515625,274.18585,355.873378515625,273.33195C348.997578515625,270.49065,343.723978515625,263.41065000000003,344.268478515625,256.00475C344.532878515625,252.52685,345.979678515625,249.17325,345.824078515625,245.69535C345.758878515625,243.70645,345.174378515625,241.76905,344.128478515625,240.07485C342.572778515625,237.46645,339.897178515625,235.55675,338.668178515625,232.69995C336.583678515625,227.93345,339.134878515625,222.28195,337.797078515625,217.26695C337.524878515625,215.66325,336.378478515625,214.34535,334.825878515625,213.85125C333.270178515625,213.57175,331.714578515625,214.73615,330.158978515625,215.17095C326.876578515625,216.07145,323.671978515625,213.61835,321.260778515625,211.22725C318.849578515625,208.83625,316.127278515625,206.08814999999998,312.720478515625,206.21235000000001C310.46477851562497,206.28995,308.566938515625,207.62525,306.497948515625,208.19965C304.942328515625,208.61895,301.831088515625,208.82075,300.633257515625,207.40785C297.988708515625,204.48895,305.160128515625,198.52695,306.575748515625,196.24455Z" fill="#3A3A46" fill-opacity="1"/></g><g><path d="M305.7634174375,221.442138671875C303.2082734375,235.069338671875,309.5958634375,241.031338671875,315.9836234375,243.586438671875Q322.37142343749997,246.141538671875,330.4626234375,235.069338671875L327.4817234375,221.442138671875Q318.5389234375,225.274798671875,312.5770434375,223.571398671875Q306.6151234375,221.867989671875,305.7634174375,221.442138671875Z" fill="#FFFFFF" fill-opacity="1"/></g><g><path d="M326.6641371875,222.96632796875L321.9628531875,238.35246796875L321.7871741875,238.92736796875L322.3878456875,238.90236796875Q332.8710171875,238.46556796875,336.8115171875,229.70876796875Q340.4709171875,221.57686796875,337.3411171875,215.92193096875Q337.2549171875,215.76620096875,337.2300171875,215.71621396875Q336.9837171875,215.22369696875,336.2155171875,215.02814796875Q335.5655171875,214.86267496875,334.7284171875,214.95079096875Q332.7342171875,215.16072896875,331.4377271875,216.45722796875Q329.7012771875,218.19366796875,326.6952071875,222.91748796875L326.6641371875,222.96632796875ZM322.9554091875,238.01866796875Q332.4240171875,237.38336796875,336.0349171875,229.35926796875Q339.5192171875,221.61621796875,336.5960171875,216.33435696875Q336.5011171875,216.16301196875,336.4682171875,216.09707896875Q336.3961171875,215.95298296875,336.00541718750003,215.85352896875Q335.5031171875,215.72565396875,334.8176171875,215.79781396875Q333.1232171875,215.97618396875,332.03997718749997,217.05946796875Q330.3784171875,218.72101796875,327.4448171875,223.32596796875L322.9554091875,238.01866796875Z" fill-rule="evenodd" fill="#FFFFFF" fill-opacity="1"/></g><g><path d="M309.935785546875,327.11376953125Q305.719985546875,336.89524953125,286.601485546875,334.56632953125C275.947085546875,333.18238953125,265.204485546875,332.59076953125,254.462285546875,332.79634953125Q251.351045546875,342.00336953125,253.342240546875,345.91596953124997Q298.641985546875,369.91936953125,307.602285546875,369.08096953125C316.562685546875,368.24256953125,342.255785546875,347.73456953125,345.367085546875,344.93986953125Q348.478285546875,342.14516953125,309.935785546875,327.11376953125Z" fill="#E0ECF4" fill-opacity="1"/></g></g><g><path d="M242.816288703125,304.475725234375Q267.173995703125,299.775135234375,271.077995703125,297.172445234375L270.605595703125,296.463785234375Q266.844195703125,298.971355234375,242.654902703125,303.639455234375L242.816288703125,304.475725234375ZM252.166735703125,326.197315234375Q275.301995703125,322.769815234375,278.808295703125,319.263515234375L278.205995703125,318.661315234375Q274.898795703125,321.968515234375,252.041915703125,325.354715234375L252.166735703125,326.197315234375Z" fill-rule="evenodd" fill="#FFFFFF" fill-opacity="1"/></g></g><g><line x1="28.9580078125" y1="652.4050953388214" x2="866.1822509765625" y2="652.4050953388214" fill-opacity="0" stroke-opacity="1" stroke="#242424" fill="none" stroke-width="5.110219478607178"/></g><g transform="matrix(-1,0,0,1,1652.30419921875,0)"><g><path d="M1020.000035234375,373.185553828125L1020.000035234375,369.784423828125L1013.858735234375,369.784423828125L1013.858735234375,373.185553828125L1011.411865234375,373.185553828125L1011.411865234375,398.001223828125L1029.845465234375,398.001223828125L1029.845465234375,373.185553828125L1020.000035234375,373.185553828125Z" fill="#457ECD" fill-opacity="1"/></g><g><rect x="976.072265625" y="412.00390625" width="5.957560062408447" height="38.16826248168945" rx="0" fill="#223451" fill-opacity="1"/></g><g><rect x="1044.632568359375" y="379.96923828125" width="10.8029146194458" height="20.493993759155273" rx="0" fill="#F4F4F4" fill-opacity="1"/></g><g><rect x="994.921630859375" y="412.759521484375" width="5.957560062408447" height="38.16826248168945" rx="0" fill="#223451" fill-opacity="1"/></g><g><rect x="1060.261962890625" y="379.96923828125" width="7.814460754394531" height="20.493993759155273" rx="0" fill="#F4F4F4" fill-opacity="1"/></g><g><rect x="1073.36572265625" y="378.815185546875" width="8.269014358520508" height="22.800186157226562" rx="0" fill="#F4F4F4" fill-opacity="1"/></g><g><rect x="1090.775146484375" y="412.00390625" width="5.957560062408447" height="38.16826248168945" rx="0" fill="#223451" fill-opacity="1"/></g><g><rect x="963.267822265625" y="393.81689453125" width="125.50531005859375" height="25.048227310180664" rx="0" fill="#94B2DF" fill-opacity="1"/></g><g><rect x="1088.772705078125" y="393.81689453125" width="34.623477935791016" height="25.048227310180664" rx="0" fill="#749AC9" fill-opacity="1"/></g><g><rect x="1005.10595703125" y="428.3203125" width="26.654281616210938" height="19.369977951049805" rx="0" fill="#F4F4F4" fill-opacity="1"/></g><g><path d="M1044.64258609375,424.638927109375L1044.64258609375,420.956787109375L1037.96935609375,420.956787109375L1037.96935609375,424.638927109375L1035.67724609375,424.638927109375L1035.67724609375,447.700687109375L1053.83034609375,447.700687109375L1053.83034609375,424.638927109375L1044.64258609375,424.638927109375Z" fill="#457ECD" fill-opacity="1"/></g><g><rect x="1059.343505859375" y="430.17138671875" width="8.733244895935059" height="17.52890968322754" rx="0" fill="#F4F4F4" fill-opacity="1"/></g><g><rect x="1071.752197265625" y="430.17138671875" width="8.501130104064941" height="17.52890968322754" rx="0" fill="#F4F4F4" fill-opacity="1"/></g><g><rect x="963.267822265625" y="442.9619140625" width="125.50531005859375" height="195.2501678466797" rx="0" fill="#94B2DF" fill-opacity="1"/></g><g><rect x="1088.772705078125" y="442.9619140625" width="34.623477935791016" height="195.2501678466797" rx="0" fill="#749AC9" fill-opacity="1"/></g><g><path d="M1079.70752734375,630.274462890625L1083.55152734375,630.274462890625L1083.55152734375,451.263882890625L1079.69252734375,451.186382890625L1079.69252734375,446.847759890625L973.10145734375,446.847759890625L973.06275734375,451.179112890625L969.56382434375,451.179112890625L969.56382434375,631.727462890625L971.31966934375,631.708462890625L971.31005134375,633.617462890625L1079.72652734375,633.617462890625L1079.70752734375,630.274462890625ZM1081.84852734375,628.5714628906251L1077.99452734375,628.5714628906251L1078.01352734375,631.9134628906249L973.02205734375,631.9134628906249L973.03177734375,629.9854628906251L971.26723034375,630.005462890625L971.26723034375,452.882522890625L974.75101734375,452.882522890625L974.78971734375,448.551165890625L1077.98952734375,448.551165890625L1077.98952734375,452.855922890625L1081.84852734375,452.933422890625L1081.84852734375,628.5714628906251Z" fill-rule="evenodd" fill="#749AC9" fill-opacity="1"/></g><g><ellipse cx="1074.8549194335938" cy="536.0913405418396" rx="4.13934326171875" ry="4.1472487449646" fill="#000000" fill-opacity="1"/></g><g><ellipse cx="989.4768714904785" cy="645.4793062210083" rx="7.282535552978516" ry="7.296444892883301" fill="#000000" fill-opacity="1"/></g><g><ellipse cx="989.4095182418823" cy="645.4211206436157" rx="2.495211601257324" ry="2.4999780654907227" fill="#749AC9" fill-opacity="1"/></g><g><ellipse cx="1101.4715003967285" cy="645.4793062210083" rx="7.282535552978516" ry="7.296444892883301" fill="#000000" fill-opacity="1"/></g><g><ellipse cx="1101.4129362106323" cy="645.4211206436157" rx="2.495211601257324" ry="2.4999780654907227" fill="#749AC9" fill-opacity="1"/></g><g><path d="M877.598388671875,230.251579296875Q877.956227671875,231.346479296875,880.876978671875,253.303679296875L904.262288671875,256.210579296875Q902.066988671875,222.906649296875,904.262288671875,219.253589296875Q906.457688671875,215.600516296875,880.519138671875,214.873779296875L877.598388671875,230.251579296875Z" fill="#FFAA9E" fill-opacity="1"/></g><g><path d="M903.015678515625,196.093994140625Q913.035278515625,204.814844140625,910.394978515625,221.733294140625C907.754678515625,238.651694140625,899.321278515625,239.17499414062502,890.616978515625,236.268094140625Q881.912778515625,233.361094140625,873.740478515625,216.888394140625L879.543298515625,202.208274140625L903.015678515625,196.093994140625Z" fill="#FFAA9E" fill-opacity="1"/></g><g><path d="M896.68051796875,213.011613671875L901.69031796875,214.872113671875Q900.63611796875,205.753913671875,902.99591796875,203.961313671875C905.35571796875,202.168713671875,910.73301796875,187.779313671875,902.2319179687499,181.568133671875C893.73071796875,175.356952671875,866.61221796875,169.523673671875,856.07044796875,195.96721367187502C845.52865796875,222.410813671875,875.05531796875,234.600613671875,880.85811796875,236.819613671875Q886.66091796875,239.038513671875,892.28971796875,229.784713671875Q884.46551796875,213.932213671875,892.28971796875,212.081413671875Q893.45021796875,211.044613671875,896.68051796875,213.011613671875Z" fill="#39303D" fill-opacity="1"/></g><g><path d="M832.0854796093749,630.266831796875Q826.340691609375,627.679634796875,826.214963509375,633.561371796875Q826.089235709375,639.443141796875,826.214963509375,649.559341796875L883.778899609375,649.559341796875Q884.745999609375,644.966341796875,881.593199609375,643.561241796875C878.440299609375,642.156241796875,854.687499609375,633.173781796875,849.426199609375,629.704831796875Q844.164999609375,626.235891796875,832.0854796093749,630.266831796875Z" fill="#2A4275" fill-opacity="1"/></g><g><path d="M882.356676640625,634.57876703125Q878.430100640625,642.98953703125,878.787943940625,649.23950703125Q879.145786640625,655.48940703125,878.787943940625,653.71620703125L933.247356640625,652.99910703125Q933.421456640625,646.38100703125,932.357656640625,645.84800703125C931.293756640625,645.31510703125,905.277856640625,634.04583603125,902.192656640625,633.32876803125Q899.107456640625,632.61170003125,882.356676640625,634.57876703125Z" fill="#2A4275" fill-opacity="1"/></g><g><path d="M841.844045703125,486.459745546875Q844.377945703125,506.004135546875,840.403045703125,519.754035546875C836.428125703125,533.503935546875,829.455073703125,615.683435546875,829.329345703125,627.601435546875Q830.122397703125,635.566435546875,839.232815703125,635.925435546875Q848.343245703125,636.284435546875,853.411045703125,631.225435546875Q861.351245703125,580.9354355468749,872.918145703125,557.941635546875Q884.485145703125,534.947635546875,863.159745703125,479.221435546875L841.844045703125,486.459745546875Z" fill="#224FA9" fill-opacity="1"/></g><g><g mask="url(#master_svga_3_2398)"><g><path d="M869.445540270996,588.8333942871094Q827.6362002709961,526.7313942871094,829.3286906709961,479.22219428710935Q831.0211802709961,431.71286428710937,863.1784402709961,444.13526428710935L906.8833402709961,479.22219428710935L908.8176402709961,569.2313942871094L869.445540270996,588.8333942871094Z" fill="#0B3B87" fill-opacity="1"/></g></g></g><g><path d="M872.192440234375,492.244926640625Q867.134320234375,551.604856640625,870.741740234375,578.387556640625Q874.349160234375,605.170556640625,881.941190234375,640.634556640625Q895.674490234375,643.541556640625,905.781090234375,636.293556640625Q909.755990234375,538.940156640625,911.206690234375,528.804656640625Q912.657390234375,518.6690566406251,909.755990234375,488.320556640625L872.192440234375,492.244926640625Z" fill="#224FA9" fill-opacity="1"/></g><g><path d="M860.77076953125,193.159355078125Q848.49776953125,179.041265078125,839.21325953125,185.407485078125C829.92874953125,191.773705078125,834.00040103125,212.025455078125,844.81296953125,210.64945507812502Q855.62556953125,209.273555078125,860.77076953125,198.479055078125L860.77076953125,193.159355078125Z" fill="#39303D" fill-opacity="1"/></g><g><path d="M964.515891796875,389.784746015625Q979.835341796875,388.767316015625,982.659341796875,387.759578015625Q985.686541796875,386.344855015625,985.483441796875,388.728556015625Q985.280341796875,391.112266015625,980.241541796875,394.183946015625Q990.522141796875,400.443566015625,994.352041796875,400.046266015625Q996.566741796875,405.695466015625,986.083041796875,409.532666015625Q975.599241796875,413.369766015625,955.850341796875,398.428066015625L964.515891796875,389.784746015625Z" fill="#FFAA9E" fill-opacity="1"/></g><g><path d="M876.031469921875,239.66943359375Q904.078469921875,248.06083359375,911.486769921875,265.53163359375003Q918.894969921875,283.00233359375,920.326369921875,349.47443359375L970.917169921875,387.26543359375L961.381169921875,407.45843359375L923.479169921875,385.42343359375Q926.022769921875,494.11443359375,923.479169921875,502.47743359375C920.935669921875,510.83943359375,882.453269921875,518.3204335937501,849.009669921875,499.39543359375Q835.740579921875,493.23343359374996,828.274284521875,487.95243359375C828.245275721875,488.00043359375,833.699929921875,262.86693359375,876.031469921875,239.66943359375Z" fill="#FACE86" fill-opacity="1"/></g><g><g mask="url(#master_svgb_3_2381)"><g><path d="M869.4451751708984,297.1588363647461Q887.5305751708985,370.6949363647461,930.3747751708985,389.4642363647461L923.9239751708984,405.7818363647461C891.8626751708985,378.4390363647461,872.2198651708984,339.2530363647461,869.4741917708984,297.1588437575061L869.4451751708984,297.1588363647461Z" fill="#EFAE52" fill-opacity="1"/></g></g></g><g><path d="M902.918326484375,216.858926234375Q910.316946484375,216.752337234375,912.589646484375,216.083740234375Q917.908946484375,233.195940234375,904.852646484375,239.833540234375C901.372226484375,240.527540234375,897.761696484375,239.699040234375,894.929782484375,237.556440234375C894.588962484375,237.273040234375,894.265968484375,236.968840234375,893.962646484375,236.645540234375Q901.525646484375,231.539040234375,902.918326484375,216.858926234375Z" fill="#FFFFFF" fill-opacity="1"/></g><g><path d="M896.538706484375,212.422463046875Q899.858896484375,213.977503046875,903.919396484375,219.524243046875L904.606596484375,219.02115304687499Q900.417396484375,213.298613046875,896.899956484375,211.651164046875Q893.226006484375,209.930423046875,890.303416484375,212.550633046875Q887.530918484375,215.036293046875,888.017886484375,218.921093046875Q888.203924484375,220.405213046875,888.890520484375,222.288423046875Q889.293913484375,223.394923046875,890.244526484375,225.54022304687498Q891.600266484375,228.599823046875,891.873446484375,229.875323046875Q892.819046484375,234.374023046875,896.209516484375,237.474423046875L896.784266484375,236.845823046875Q893.596146484375,233.930523046875,892.706266484375,229.697023046875Q892.414636484375,228.335323046875,891.023206484375,225.195123046875Q890.084246484375,223.076123046875,889.690706484375,221.996723046875Q889.037050484375,220.203843046875,888.862975484375,218.815163046875Q888.431468984375,215.372793046875,890.871966484375,213.184793046875Q893.375016484375,210.940709046875,896.538706484375,212.422463046875Z" fill-rule="evenodd" fill="#FFFFFF" fill-opacity="1"/></g></g></g></svg>