<svg xmlns="http://www.w3.org/2000/svg" xmlns:xlink="http://www.w3.org/1999/xlink" fill="none" version="1.1" width="300" height="130.173828125" viewBox="0 0 300 130.173828125"><g><g><path d="M8.404296875,114.363871875C8.406168915,111.632851875,10.606006875,109.419921875,13.318996875,109.419921875C16.031996875,109.419921875,18.231826875,111.632851875,18.233706875,114.363871875" fill="#E8EBEE" fill-opacity="1"/></g><g><path d="M13.3095878125,114.37092375C13.2362175125,114.37088375,13.17675562809,114.31104375,13.1767578125,114.23721375L13.1767578125,111.62980675C13.17675562809,111.55595745,13.2362263125,111.49609375,13.3095858125,111.49609375C13.3829468125,111.49609375,13.4424168125,111.55595745,13.4424168125,111.62980675L13.4424168125,114.23721375C13.4423958125,114.31105375,13.3829318125,114.37092375,13.3095878125,114.37092375Z" fill="#AAABAD" fill-opacity="1"/></g><g><path d="M13.2981625,113.4658525C13.266422500000001,113.4659025,13.2357325,113.4544525,13.2116925,113.4335925L11.617747,112.0564425C11.56111612,112.0085765,11.5542003,111.9233985,11.6023578,111.8669299C11.6505154,111.81046129,11.7352135,111.804445,11.7907725,111.8535428L13.3847325,113.2306925C13.4269125,113.2671225,13.4420825,113.3261425,13.4227725,113.3786125C13.4034525,113.4310725,13.3537325,113.4658825,13.2981625,113.4658525Z" fill="#AAABAD" fill-opacity="1"/></g><g><path d="M23.521484375,114.362471875C23.524136255,111.631991875,25.723744375,109.419921875,28.436184375,109.419921875C31.148634375,109.419921875,33.348244375,111.631991875,33.350884375,114.362471875" fill="#E8EBEE" fill-opacity="1"/></g><g><path d="M28.466814375,114.37092375C28.393452875,114.37092375,28.33398000617,114.31105375,28.333984375,114.23721375L28.333984375,111.62980675C28.333984375,111.55595745,28.393452875,111.49609375,28.466814375,111.49609375C28.540175375,111.49609375,28.599643375,111.55595745,28.599643375,111.62980675L28.599643375,114.23721375C28.599613375,114.31105375,28.540153375,114.37092375,28.466814375,114.37092375Z" fill="#AAABAD" fill-opacity="1"/></g><g><path d="M28.456225625000002,113.4657325C28.424495625,113.4657825,28.393805625,113.4543325,28.369765625,113.4334625L26.775803825,112.0563195C26.719297405,112.0084355,26.712451425,111.9233275,26.760565325,111.8669123C26.808674825,111.81049647,26.893268625,111.804445,26.948844625,111.8534196L28.542805625,113.2305625C28.584975625,113.2670125,28.600155625,113.3260325,28.580835625,113.3784925C28.561515625,113.4309725,28.511795625,113.4657825,28.456225625000002,113.4657325Z" fill="#AAABAD" fill-opacity="1"/></g><g><ellipse cx="224.70035934448242" cy="10.263151168823242" rx="9.448406219482422" ry="9.511198043823242" fill="#E8EBEE" fill-opacity="1"/></g><g><ellipse cx="31.14219856262207" cy="122.97065258026123" rx="8.58946418762207" ry="2.0175275802612305" fill="#E8EBEE" fill-opacity="1"/></g><g><path d="M149.399775,106.352625C149.557875,106.352625,149.686075,106.223585,149.686075,106.064405C149.686075,105.905215,149.557875,105.776185,149.399775,105.776185L146.679775,105.776185L146.679775,104.623312L149.399775,104.623312C149.557875,104.623312,149.686075,104.494278,149.686075,104.335093C149.686075,104.175908,149.557875,104.046875,149.399775,104.046875L126.20819,104.046875C126.050056,104.046875,125.921875,104.175908,125.921875,104.335093C125.921875,104.494278,126.050056,104.623312,126.20819,104.623312L128.928185,104.623312L128.928185,105.776185L126.20819,105.776185C126.050056,105.776185,125.921875,105.905215,125.921875,106.064405C125.921875,106.223585,126.050056,106.352625,126.20819,106.352625L128.928185,106.352625L128.928185,107.505495L126.20819,107.505495C126.050056,107.505495,125.921875,107.634525,125.921875,107.793705C125.921875,107.952895,126.050056,108.081925,126.20819,108.081925L128.928185,108.081925L128.928185,109.234805L126.494506,109.234805C126.178255,109.234805,125.921875,109.492885,125.921875,109.811235C125.921875,110.129595,126.178255,110.387675,126.494506,110.387675L128.811315,110.387675C128.794435,110.433855,128.785535,110.482585,128.785025,110.531785L128.785025,114.566875C128.785025,114.805575,128.977315,114.999175,129.214505,114.999175C129.451695,114.999175,129.643975,114.805575,129.643975,114.566875L129.643975,110.531785C129.643475,110.482585,129.634575,110.433835,129.617695,110.387675L145.990275,110.387675C145.973375,110.433855,145.964475,110.482585,145.963975,110.531785L145.963975,114.566875C145.963975,114.805575,146.156275,114.999175,146.393475,114.999175C146.630575,114.999175,146.822875,114.805575,146.822875,114.566875L146.822875,110.531785C146.822375,110.482585,146.81357500000001,110.433835,146.796675,110.387675L149.113475,110.387675C149.429675,110.387675,149.686075,110.129595,149.686075,109.811235C149.686075,109.492885,149.429675,109.234805,149.113475,109.234805L146.679775,109.234805L146.679775,108.081925L149.399775,108.081925C149.557875,108.081925,149.686075,107.952895,149.686075,107.793705C149.686075,107.634525,149.557875,107.505495,149.399775,107.505495L146.679775,107.505495L146.679775,106.352625L149.399775,106.352625ZM129.500815,104.623312L146.107075,104.623312L146.107075,105.776185L129.500815,105.776185L129.500815,104.623312ZM146.107075,109.234805L129.500815,109.234805L129.500815,108.081925L146.107075,108.081925L146.107075,109.234805ZM146.107075,107.505495L129.500815,107.505495L129.500815,106.352625L146.107075,106.352625L146.107075,107.505495Z" fill="#3F3D56" fill-opacity="1"/></g><g><path d="M62.070293750000005,94.260996875C62.070293750000005,89.17079687500001,57.96829375,77.091796875,52.90818375,77.091796875C47.84810375,77.091796875,43.74609375,89.17079687500001,43.74609375,94.260996875C43.74609375,99.354796875,47.84810375,103.483996875,52.90819375,103.483996875C57.96829375,103.483996875,62.070293750000005,99.354796875,62.070293750000005,94.260996875Z" fill="#D5D6DB" fill-opacity="1"/></g><g><path d="M59.789043750000005,94.260996875C59.789043750000005,89.17079687500001,55.68704375,77.091796875,50.62693375,77.091796875C45.56685375,77.091796875,41.46484375,89.17079687500001,41.46484375,94.260996875C41.46484375,99.354796875,45.56685375,103.483996875,50.62694375,103.483996875C55.68704375,103.483996875,59.789043750000005,99.354796875,59.789043750000005,94.260996875Z" fill="#E8EBEE" fill-opacity="1"/></g><g><path d="M50.91522125,114.88949375C50.75708725,114.88949375,50.62890625,114.76039374999999,50.62890625,114.60129375L50.62890625,88.90931175C50.62890625,88.75012675,50.75709225,88.62109375,50.91522125,88.62109375C51.07335125,88.62109375,51.20153725,88.75012675,51.20153725,88.90931175L51.20153725,114.60129375C51.20153725,114.76049375,51.07335125,114.88949375,50.91522125,114.88949375Z" fill="#AAABAD" fill-opacity="1"/></g><g><path d="M50.91516525,93.108511875C50.79938225,93.108491875,50.69501105,93.038271875,50.65070675,92.930591875C50.60640245,92.822911875,50.63088533,92.698981875,50.71273975,92.616531875L54.45706625,88.847178375C54.56900625,88.735490375,54.74957625,88.735894975,54.86103625,88.848093175C54.97249625,88.960291875,54.97289625,89.142063875,54.86193625,89.254736875L51.11760825,93.024091875C51.06397625,93.078231875,50.99111725,93.108621875,50.91516525,93.108511875Z" fill="#AAABAD" fill-opacity="1"/></g><g><path d="M156.2716665625,114.88949375C156.1135325625,114.88949375,155.9853340872,114.76039374999999,155.9853515625,114.60129375L155.9853515625,88.90931175C155.9853515625,88.75012675,156.1135325625,88.62109375,156.2716665625,88.62109375C156.4298005625,88.62109375,156.5579825625,88.75012675,156.5579825625,88.90931175L156.5579825625,114.60129375C156.5579825625,114.76049375,156.4298005625,114.88949375,156.2716665625,114.88949375Z" fill="#3F3D56" fill-opacity="1"/></g><g><path d="M186.896465625,94.260996875C186.896465625,89.17079687500001,182.794465625,77.091796875,177.734355625,77.091796875C172.674275625,77.091796875,168.572265625,89.17079687500001,168.572265625,94.260996875C168.572265625,99.354796875,172.674275625,103.483996875,177.734365625,103.483996875C182.794465625,103.483996875,186.896465625,99.354796875,186.896465625,94.260996875Z" fill="#D5D6DB" fill-opacity="1"/></g><g><path d="M184.615215625,94.260996875C184.615215625,89.17079687500001,180.513215625,77.091796875,175.453105625,77.091796875C170.393025625,77.091796875,166.291015625,89.17079687500001,166.291015625,94.260996875C166.291015625,99.354796875,170.393025625,103.483996875,175.453115625,103.483996875C180.513215625,103.483996875,184.615215625,99.354796875,184.615215625,94.260996875Z" fill="#E8EBEE" fill-opacity="1"/></g><g><path d="M175.741393125,114.88949375C175.583259125,114.88949375,175.4550606497,114.76039374999999,175.455078125,114.60129375L175.455078125,88.90931175C175.455078125,88.75012675,175.583259125,88.62109375,175.741393125,88.62109375C175.899527125,88.62109375,176.027709125,88.75012675,176.027709125,88.90931175L176.027709125,114.60129375C176.027709125,114.76049375,175.899527125,114.88949375,175.741393125,114.88949375Z" fill="#AAABAD" fill-opacity="1"/></g><g><path d="M175.741306125,93.105505625C175.625532125,93.105485625,175.521169725,93.035255625,175.476869825,92.927585625C175.432569925,92.819905625,175.457035355,92.695955625,175.538889625,92.613525625L179.283218125,88.844169325C179.395028125,88.731636925,179.576288125,88.731636925,179.688098125,88.844186925C179.799888125,88.956736625,179.799888125,89.139195625,179.688088125,89.251727625L175.943757125,93.021085625C175.890126125,93.075225625,175.817254125,93.105605625,175.741306125,93.105505625Z" fill="#AAABAD" fill-opacity="1"/></g><g><path d="M81.246423125,15.326359375L76.665373125,15.326359375C75.954128125,15.325559375,75.377748251,14.745359375,75.376953125,14.029459375L75.376953125,3.365339375C75.377748251,2.649365375,75.954128125,2.06915099,76.665373125,2.068359375L81.246423125,2.068359375C81.957663125,2.06915099,82.534053125,2.649365375,82.534833125,3.365339375L82.534833125,14.029459375C82.534053125,14.745359375,81.957663125,15.325559375,81.246423125,15.326359375Z" fill="#D5D6DB" fill-opacity="1"/></g><g><path d="M99.30222499999999,114.747265625L75.824305,114.747265625C74.480845,114.745265625,73.39213662,113.649765625,73.390625,112.297465625L73.390625,16.897125625C73.39212788,15.544725625,74.480845,14.448778495,75.824305,14.447265625L99.30222499999999,14.447265625C100.645625,14.448769695,101.734325,15.544725625,101.735825,16.897125625L101.735825,112.297465625C101.734325,113.649765625,100.645625,114.745265625,99.30222499999999,114.747265625Z" fill="#D5D6DB" fill-opacity="1"/></g><g><path d="M85.28659999999999,114.747265625L61.80868,114.747265625C60.46522,114.745265625,59.37652035,113.649765625,59.375,112.297465625L59.375,16.897125625C59.37650288,15.544735625,60.46522,14.448778495,61.80868,14.447265625L85.28659999999999,14.447265625C86.63,14.448778495,87.7187,15.544735625,87.7202,16.897125625L87.7202,112.297465625C87.7187,113.649765625,86.63,114.745265625,85.28659999999999,114.747265625Z" fill="#E8EBEE" fill-opacity="1"/></g><g><path d="M76.9798215625,15.326359375L72.3987715625,15.326359375C71.6875265625,15.325659375,71.1111379515,14.745359375,71.1103515625,14.029459375L71.1103515625,3.365339375C71.1111379515,2.649361375,71.6875265625,2.069142195,72.3987715625,2.068359375L76.9798215625,2.068359375C77.6910715625,2.069146593,78.2674515625,2.649361375,78.2682315625,3.365339375L78.2682315625,14.029459375C78.2674515625,14.745359375,77.6910615625,15.325659375,76.9798215625,15.326359375Z" fill="#E8EBEE" fill-opacity="1"/></g><g><path d="M70.93312375,36.074810625L65.49313275,36.074810625C65.09799775,36.074360625,64.77778937,35.752030625,64.77734375,35.354260625L64.77734375,26.995935625C64.77778937,26.598175625,65.09799775,26.275839207,65.49313275,26.275390625L70.93312375,26.275390625C71.32826375,26.275839207,71.64847375,26.598175625,71.64891375,26.995935625L71.64891375,35.354260625C71.64847375,35.752030625,71.32826375,36.074360625,70.93312375,36.074810625Z" fill="#FFFFFF" fill-opacity="1"/></g><g><path d="M81.532733125,36.074810625L76.092742125,36.074810625C75.697599125,36.074360625,75.377390008,35.752030625,75.376953125,35.354260625L75.376953125,26.995935625C75.377390008,26.598175625,75.697599125,26.275839207,76.092742125,26.275390625L81.532733125,26.275390625C81.927873125,26.275839207,82.248083125,26.598175625,82.248523125,26.995935625L82.248523125,35.354260625C82.248083125,35.752030625,81.927873125,36.074360625,81.532733125,36.074810625Z" fill="#FFFFFF" fill-opacity="1"/></g><g><path d="M70.93312375,51.34238875L65.49313275,51.34238875C65.09799775,51.34193875,64.77778937,51.01960875,64.77734375,50.62183875L64.77734375,42.26351375C64.777798108,41.86575375,65.09799775,41.543426127,65.49313275,41.54296875L70.93312375,41.54296875C71.32826375,41.543426127,71.64846375,41.86575375,71.64891375,42.26351375L71.64891375,50.62183875C71.64847375,51.01960875,71.32826375,51.34193875,70.93312375,51.34238875Z" fill="#FFFFFF" fill-opacity="1"/></g><g><path d="M81.532733125,51.34238875L76.092742125,51.34238875C75.697599125,51.34193875,75.377390008,51.01960875,75.376953125,50.62183875L75.376953125,42.26351375C75.377398745,41.86575375,75.697607125,41.543417332,76.092742125,41.54296875L81.532733125,41.54296875C81.927873125,41.543426127,82.248073125,41.86575375,82.248523125,42.26351375L82.248523125,50.62183875C82.248083125,51.01960875,81.927873125,51.34193875,81.532733125,51.34238875Z" fill="#FFFFFF" fill-opacity="1"/></g><g><path d="M70.93312375,66.61582625L65.49313275,66.61582625C65.09799775,66.61535625,64.777798108,66.29302625,64.77734375,65.89527625L64.77734375,57.53695125C64.77778937,57.13919125,65.09799775,56.816854832,65.49313275,56.81640625L70.93312375,56.81640625C71.32826375,56.816854832,71.64847375,57.13919125,71.64891375,57.53695125L71.64891375,65.89527625C71.64846375,66.29302625,71.32826375,66.61535625,70.93312375,66.61582625Z" fill="#FFFFFF" fill-opacity="1"/></g><g><path d="M81.532733125,66.61582625L76.092742125,66.61582625C75.697607125,66.61537625,75.377398745,66.29304625,75.376953125,65.89527625L75.376953125,57.53695125C75.377390008,57.13919125,75.697599125,56.816846036,76.092742125,56.81640625L81.532733125,56.81640625C81.927873125,56.816854832,82.248083125,57.13919125,82.248523125,57.53695125L82.248523125,65.89527625C82.248073125,66.29302625,81.927873125,66.61535625,81.532733125,66.61582625Z" fill="#FFFFFF" fill-opacity="1"/></g><g><path d="M70.93312375,81.9009825L65.49313275,81.9009825C65.09799775,81.9005125,64.777798108,81.5781825,64.77734375,81.1804325L64.77734375,72.8221075C64.77778937,72.4243475,65.09799775,72.102011082,65.49313275,72.1015625L70.93312375,72.1015625C71.32826375,72.102011082,71.64847375,72.4243475,71.64891375,72.8221075L71.64891375,81.1804325C71.64846375,81.5781825,71.32826375,81.9005125,70.93312375,81.9009825Z" fill="#FFFFFF" fill-opacity="1"/></g><g><path d="M81.532733125,81.9009825L76.092742125,81.9009825C75.697607125,81.9005325,75.377398745,81.5782025,75.376953125,81.1804325L75.376953125,72.8221075C75.377390008,72.4243475,75.697599125,72.102002286,76.092742125,72.1015625L81.532733125,72.1015625C81.927873125,72.102011082,82.248083125,72.4243475,82.248523125,72.8221075L82.248523125,81.1804325C82.248073125,81.5781825,81.927873125,81.9005125,81.532733125,81.9009825Z" fill="#FFFFFF" fill-opacity="1"/></g><g><path d="M70.93312375,97.17832625L65.49313275,97.17832625C65.09799775,97.17786625,64.77778937,96.85554625,64.77734375,96.45777625L64.77734375,88.09945125C64.777798108,87.70169125,65.09800675,87.379346036,65.49313275,87.37890625L70.93312375,87.37890625C71.32825375,87.379346036,71.64846375,87.70169125,71.64891375,88.09945125L71.64891375,96.45777625C71.64847375,96.85554625,71.32826375,97.17786625,70.93312375,97.17832625Z" fill="#FFFFFF" fill-opacity="1"/></g><g><path d="M81.532733125,97.17832625L76.092742125,97.17832625C75.697599125,97.17788625,75.377390008,96.85554625,75.376953125,96.45777625L75.376953125,88.09945125C75.377398745,87.70169125,75.697607125,87.379346036,76.092742125,87.37890625L81.532733125,87.37890625C81.927863125,87.379346036,82.248073125,87.70169125,82.248523125,88.09945125L82.248523125,96.45777625C82.248083125,96.85554625,81.927873125,97.17786625,81.532733125,97.17832625Z" fill="#FFFFFF" fill-opacity="1"/></g><g><path d="M199.484704375,65.7637375L194.903654375,65.7637375C194.192409375,65.7629275,193.616038239,65.1827275,193.615234375,64.4667575L193.615234375,58.4141675C193.616038239,57.6981975,194.192409375,57.117987911,194.903654375,57.1171875L199.484704375,57.1171875C200.195944375,57.117996706,200.772314375,57.6982065,200.773114375,58.4141675L200.773114375,64.4667575C200.772334375,65.1827175,200.195944375,65.7629275,199.484704375,65.7637375Z" fill="#D5D6DB" fill-opacity="1"/></g><g><path d="M238.1449984375,115.044759375L214.6670784375,115.044759375C213.3236184375,115.04325937499999,212.2349013175,113.94735937499999,212.2333984375,112.594859375L212.2333984375,66.768209375C212.2349013175,65.415819375,213.3236184375,64.319863445,214.6670784375,64.318359375L238.1449984375,64.318359375C239.4883984375,64.319863445,240.5770984375,65.415819375,240.5785984375,66.768209375L240.5785984375,112.594859375C240.5770984375,113.94735937499999,239.4883984375,115.04325937499999,238.1449984375,115.044759375Z" fill="#D5D6DB" fill-opacity="1"/></g><g><path d="M224.1188203125,115.044759375L183.4620003125,115.044759375C182.1185303125,115.04325937499999,181.0298231925,113.94735937499999,181.0283203125,112.594859375L181.0283203125,66.768209375C181.0298231925,65.415819375,182.1185303125,64.319863445,183.4620003125,64.318359375L224.1188203125,64.318359375C225.4622203125,64.319863445,226.5510203125,65.415819375,226.5524203125,66.768209375L226.5524203125,112.594859375C226.5510203125,113.94735937499999,225.4622203125,115.04325937499999,224.1188203125,115.044759375Z" fill="#E8EBEE" fill-opacity="1"/></g><g><path d="M195.2181028125,65.7637375L190.6370528125,65.7637375C189.9258078125,65.76293749999999,189.3494192015,65.1827275,189.3486328125,64.4667575L189.3486328125,58.4141675C189.3494192015,57.6981885,189.9258078125,57.117979115,190.6370528125,57.1171875L195.2181028125,57.1171875C195.9293428125,57.117996706,196.5057128125,57.6981975,196.5065128125,58.4141675L196.5065128125,64.4667575C196.5057128125,65.1827175,195.9293428125,65.7629275,195.2181028125,65.7637375Z" fill="#E8EBEE" fill-opacity="1"/></g><g><path d="M201.24562375,86.940045L195.80563275,86.940045C195.41049775,86.939585,195.090280633,86.617265,195.08984375,86.219495L195.08984375,77.86117C195.090298108,77.463419,195.41049775,77.141091173,195.80563275,77.140625L201.24562375,77.140625C201.64076375,77.141099969,201.96094375,77.463428,201.96141375,77.86117L201.96141375,86.219495C201.96094375,86.617265,201.64076375,86.939575,201.24562375,86.940045Z" fill="#FFFFFF" fill-opacity="1"/></g><g><path d="M211.8012878125,86.940045L206.3612968125,86.940045C205.9661618125,86.939575,205.6459796455,86.617235,205.6455078125,86.219495L205.6455078125,77.86117C205.6459796455,77.463419,205.9661798125,77.141099969,206.3612968125,77.140625L211.8012878125,77.140625C212.1964278125,77.141091173,212.5166478125,77.463419,212.5170778125,77.86117L212.5170778125,86.219495C212.5166478125,86.617265,212.1964278125,86.939585,211.8012878125,86.940045Z" fill="#FFFFFF" fill-opacity="1"/></g><g><path d="M201.24562375,102.221295L195.80563275,102.221295C195.41049775,102.220835,195.090280633,101.898515,195.08984375,101.500745L195.08984375,93.14242C195.090280633,92.74466,195.41049775,92.422332377,195.80563275,92.421875L201.24562375,92.421875C201.64076375,92.422349969,201.96094375,92.744678,201.96141375,93.14242L201.96141375,101.500745C201.96094375,101.898485,201.64076375,102.220825,201.24562375,102.221295Z" fill="#FFFFFF" fill-opacity="1"/></g><g><path d="M211.8012878125,102.221295L206.3612968125,102.221295C205.9661618125,102.220825,205.6459796455,101.898485,205.6455078125,101.500745L205.6455078125,93.14242C205.6459796455,92.744678,205.9661618125,92.422349969,206.3612968125,92.421875L211.8012878125,92.421875C212.1964278125,92.422349969,212.5166478125,92.744678,212.5170778125,93.14242L212.5170778125,101.500745C212.5166478125,101.898485,212.1964278125,102.220825,211.8012878125,102.221295Z" fill="#FFFFFF" fill-opacity="1"/></g><g><path d="M299.713,115.183858875L0.286315,115.183858875C0.128188,115.183858875,0,115.054824875,0,114.895639875C0,114.736454875,0.128188,114.607421875,0.286315,114.607421875L299.713,114.607421875C299.872,114.607421875,300,114.736454875,300,114.895639875C300,115.054824875,299.872,115.183858875,299.713,115.183858875Z" fill="#D5D6DB" fill-opacity="1"/></g><g><path d="M103.896121875,125.277608875L77.268736875,125.277608875C77.110611875,125.277608875,76.982421875,125.148574875,76.982421875,124.989389875C76.982421875,124.830204875,77.110611875,124.701171875,77.268736875,124.701171875L103.896121875,124.701171875C104.054221875,124.701171875,104.182421875,124.830204875,104.182421875,124.989389875C104.182421875,125.148574875,104.054221875,125.277608875,103.896121875,125.277608875Z" fill="#D5D6DB" fill-opacity="1"/></g><g><path d="M170.0240515625,125.277608875L143.3966665625,125.277608875C143.2385325625,125.277608875,143.1103515625,125.148574875,143.1103515625,124.989389875C143.1103515625,124.830204875,143.2385325625,124.701171875,143.3966665625,124.701171875L170.0240515625,124.701171875C170.1821515625,124.701171875,170.3103515625,124.830204875,170.3103515625,124.989389875C170.3103515625,125.148574875,170.1821515625,125.277608875,170.0240515625,125.277608875Z" fill="#D5D6DB" fill-opacity="1"/></g><g><path d="M236.150028125,125.277608875L209.522643125,125.277608875C209.364509125,125.277608875,209.236328125,125.148574875,209.236328125,124.989389875C209.236328125,124.830204875,209.364509125,124.701171875,209.522643125,124.701171875L236.150028125,124.701171875C236.308128125,124.701171875,236.436328125,124.830204875,236.436328125,124.989389875C236.436328125,125.148574875,236.308128125,125.277608875,236.150028125,125.277608875Z" fill="#D5D6DB" fill-opacity="1"/></g><g><path d="M119.03904375,94.260996875C119.03904375,89.17079687500001,114.93704375,77.091796875,109.87693375,77.091796875C104.81685375,77.091796875,100.71484375,89.17079687500001,100.71484375,94.260996875C100.71484375,99.354796875,104.81685375,103.483996875,109.87694375,103.483996875C114.93704375,103.483996875,119.03904375,99.354796875,119.03904375,94.260996875Z" fill="#D5D6DB" fill-opacity="1"/></g><g><path d="M116.7568171875,94.260996875C116.7568171875,89.17079687500001,112.6548171875,77.091796875,107.5947071875,77.091796875C102.5346271875,77.091796875,98.4326171875,89.17079687500001,98.4326171875,94.260996875C98.4326171875,99.354796875,102.5346271875,103.483996875,107.5947171875,103.483996875C112.6548171875,103.483996875,116.7568171875,99.354796875,116.7568171875,94.260996875Z" fill="#E8EBEE" fill-opacity="1"/></g><g><path d="M107.8829946875,114.88949375C107.7248606875,114.88949375,107.5966796875,114.76039374999999,107.5966796875,114.60129375L107.5966796875,88.90931175C107.5966796875,88.75012675,107.7248696875,88.62109375,107.8829946875,88.62109375C108.0411206875,88.62109375,108.1693106875,88.75012675,108.1693106875,88.90931175L108.1693106875,114.60129375C108.1693106875,114.76049375,108.0411206875,114.88949375,107.8829946875,114.88949375Z" fill="#AAABAD" fill-opacity="1"/></g><g><path d="M107.8829336875,93.108511875C107.7671516875,93.108491875,107.6627712875,93.038271875,107.6184713875,92.930591875C107.5741714875,92.822911875,107.5986543975,92.698961875,107.6805086875,92.616531875L111.4248396875,88.847178375C111.5367796875,88.735490375,111.7173696875,88.735894975,111.8288196875,88.848093175C111.9402696875,88.960291875,111.9406696875,89.142063875,111.8296996875,89.254736875L108.0853766875,93.024091875C108.0317446875,93.078231875,107.9588906875,93.108621875,107.8829336875,93.108511875Z" fill="#AAABAD" fill-opacity="1"/></g><g><path d="M265.3544734375,94.260996875C265.3544734375,89.17079687500001,261.2524734375,77.091796875,256.1923634375,77.091796875C251.1322834375,77.091796875,247.0302734375,89.17079687500001,247.0302734375,94.260996875C247.0302734375,99.354796875,251.1322834375,103.483996875,256.1923734375,103.483996875C261.2524734375,103.483996875,265.3544734375,99.354796875,265.3544734375,94.260996875Z" fill="#D5D6DB" fill-opacity="1"/></g><g><path d="M263.0742,94.260996875C263.0742,89.17079687500001,258.9722,77.091796875,253.91209,77.091796875C248.85201,77.091796875,244.75,89.17079687500001,244.75,94.260996875C244.75,99.354796875,248.85201,103.483996875,253.9121,103.483996875C258.9722,103.483996875,263.0742,99.354796875,263.0742,94.260996875Z" fill="#E8EBEE" fill-opacity="1"/></g><g><path d="M254.2003775,114.88949375C254.0422435,114.88949375,253.9140450247,114.76039374999999,253.9140625,114.60129375L253.9140625,88.90931175C253.9140625,88.75012675,254.0422435,88.62109375,254.2003775,88.62109375C254.3585115,88.62109375,254.4866935,88.75012675,254.4866935,88.90931175L254.4866935,114.60129375C254.4866935,114.76049375,254.3585115,114.88949375,254.2003775,114.88949375Z" fill="#AAABAD" fill-opacity="1"/></g><g><path d="M254.2002905,93.105505625C254.0845165,93.105485625,253.9801541,93.035255625,253.9358542,92.927585625C253.8915543,92.819905625,253.91601973,92.695955625,253.997874,92.613525625L257.7422025,88.844169325C257.8540125,88.731636925,258.0352725,88.731636925,258.1470825,88.844186925C258.2588925,88.956736625,258.2588725,89.139195625,258.1470725,89.251727625L254.4027415,93.021085625C254.3490925,93.075225625,254.2762385,93.105605625,254.2002905,93.105505625Z" fill="#AAABAD" fill-opacity="1"/></g><g><path d="M159.415120625,97.45963437500001L153.116179625,97.45963437500001C152.721010625,97.459264375,152.400740131,97.136884375,152.400390625,96.739084375L152.400390625,90.398280375C152.400740131,90.000484375,152.721010625,89.678086204,153.116179625,89.677734375L159.415120625,89.677734375C159.810290625,89.678103796,160.130540625,90.000484375,160.130910625,90.398280375L160.130910625,96.739084375C160.130540625,97.136884375,159.810290625,97.459264375,159.415120625,97.45963437500001Z" fill="#3F3D56" fill-opacity="1"/></g><g><path d="M261.51171875,114.367301875C261.51171875,111.634951875,263.71210875,109.419921875,266.42641875,109.419921875C269.14073875,109.419921875,271.34113875,111.634951875,271.34111875,114.367301875" fill="#E8EBEE" fill-opacity="1"/></g><g><path d="M266.41798625,114.37092375C266.34462475,114.37088375,266.2851737253,114.31104375,266.28515625,114.23721375L266.28515625,111.62980675C266.28515625,111.55595745,266.34462475,111.49609375,266.41798625,111.49609375C266.49134725,111.49609375,266.55081525,111.55595745,266.55081525,111.62980675L266.55081525,114.23721375C266.55079825,114.31105375,266.49134725,114.37092375,266.41798625,114.37092375Z" fill="#AAABAD" fill-opacity="1"/></g><g><path d="M266.4061809375,113.4655325C266.3744409375,113.4655825,266.3437609375,113.4541325,266.3197109375,113.4332725L264.7257719375,112.0561255C264.6694664975,112.0081895,264.6627210375,111.9232575,264.7107606375,111.8669298C264.7588002375,111.81060202,264.8432059375,111.8044626,264.8987949375,111.8532261L266.4927509375,113.2303725C266.5349209375,113.2668025,266.5500909375,113.3258225,266.5307809375,113.3783025C266.5114709375,113.4307525,266.4617509375,113.4655725,266.4061809375,113.4655325Z" fill="#AAABAD" fill-opacity="1"/></g><g><path d="M276.6298828125,114.367301875C276.6298828125,111.634951875,278.8302728125,109.419921875,281.5445828125,109.419921875C284.2589028125,109.419921875,286.4593028125,111.634951875,286.4592828125,114.367301875" fill="#E8EBEE" fill-opacity="1"/></g><g><path d="M281.53519075,114.37092375C281.46182965,114.37092375,281.40234375,114.31105375,281.40234375,114.23721375L281.40234375,111.62980675C281.40234375,111.55595745,281.46179475,111.49609375,281.53515575,111.49609375C281.60851775,111.49609375,281.66800275,111.55595745,281.66800275,111.62980675L281.66800275,114.23721375C281.66803775,114.31105375,281.60855275,114.37092375,281.53519075,114.37092375Z" fill="#AAABAD" fill-opacity="1"/></g><g><path d="M281.5702734375,113.4655525C281.5385434375,113.4655825,281.5078534375,113.4541325,281.4838134375,113.4332925L279.8898519375,112.0561435C279.8335464675,112.0082065,279.8268010375,111.9232575,279.8748231375,111.8669298C279.9228453375,111.81060202,280.0072864375,111.8044626,280.0628924375,111.8532437L281.6568534375,113.2303925C281.6990334375,113.2668425,281.7142034375,113.3258625,281.6948834375,113.3783125C281.6755834375,113.4307525,281.6258534375,113.4655725,281.5702734375,113.4655525Z" fill="#AAABAD" fill-opacity="1"/></g><g transform="matrix(0.8313369750976562,-0.5557686686515808,0.5557686686515808,0.8313369750976562,16.799458093824796,89.68082170217531)"><path d="M156.1552734375,29.069009375Q165.7297234375,28.005009375,169.4530734375,25.345489375C172.6255734375,23.079449375,172.3226734375,20.427269375,172.1636734375,19.034089375C172.1359734375,18.792139375,172.1126734375,18.588159375,172.1126734375,18.430769375C172.1126734375,17.367110375,167.8573734375,15.771199375,164.6659034375,19.494589375Q161.4744134375,23.217989375000002,156.1552734375,29.069009375Z" fill="#D5D6DB" fill-opacity="1"/></g><g transform="matrix(0.3243637681007385,-0.9459324479103088,0.9459324479103088,0.3243637681007385,96.23020142846508,213.51338377041975)"><path d="M197.5810546875,46.333988125Q202.9370846875,45.713708125,205.0199846875,44.163258125C206.7946846875,42.842228125,206.6252546875,41.296078125,206.5362646875,40.483888125C206.5208046875,40.342838125,206.5077746875,40.223923125,206.5077746875,40.132169125C206.5077746875,39.512088125,204.1273146875,38.581714125,202.3419746875,40.752348125Q200.5566246875,42.922988125,197.5810546875,46.333988125Z" fill="#D5D6DB" fill-opacity="1"/></g><g transform="matrix(0.9953804612159729,0.09600882232189178,-0.09600882232189178,0.9953804612159729,4.569800300407223,-2.709906281786971)"><path d="M30.4453125,53.0742225Q35.8013425,52.4539425,37.8842425,50.9034925C39.6589425,49.5824625,39.489512500000004,48.0363125,39.4005225,47.2241225C39.385062500000004,47.0830725,39.3720325,46.9641575,39.3720325,46.8724035C39.3720325,46.2523225,36.991572500000004,45.3219485,35.2062325,47.4925825Q33.4208825,49.6632225,30.4453125,53.0742225Z" fill="#D5D6DB" fill-opacity="1"/></g><g transform="matrix(0.9725140929222107,-0.2328440099954605,0.2328440099954605,0.9725140929222107,-10.490530497394502,34.755545675288886)"><path d="M141.96875,69.29747Q147.08053,68.62861,149.06844,66.95674C150.76221,65.53227,150.60050999999999,63.86505,150.51557,62.98927C150.50082,62.83717,150.48838,62.708944,150.48838,62.610005C150.48838,61.941368,148.21648,60.938141,146.51255,63.27875Q144.80863,65.61936,141.96875,69.29747Z" fill="#D5D6DB" fill-opacity="1"/></g><g transform="matrix(0.9200288653373718,-0.3918505012989044,0.3918505012989044,0.9200288653373718,-10.979920660727657,44.797107314661844)"><path d="M104.2607421875,56.334648125Q109.0657921875,55.705938125,110.9344121875,54.134398125C112.5265321875,52.795398125,112.3745421875,51.228218125,112.29470218750001,50.404978125C112.2808321875,50.262012125,112.2691421875,50.141480125,112.2691421875,50.048478125C112.2691421875,49.419963125,110.1335721875,48.476935125,108.5318921875,50.677098125Q106.9302121875,52.877258125,104.2607421875,56.334648125Z" fill="#D5D6DB" fill-opacity="1"/></g><g transform="matrix(0.9725140929222107,-0.2328440099954605,0.2328440099954605,0.9725140929222107,-9.602329106768593,42.5767265673785)"><path d="M175.541015625,69.4459075Q180.652795625,68.7770475,182.640705625,67.1051775C184.334475625,65.6807075,184.17277562499999,64.0134875,184.087835625,63.1377075C184.073085625,62.9856075,184.060645625,62.8573815,184.060645625,62.7584425C184.060645625,62.0898055,181.788745625,61.0865785,180.084815625,63.4271875Q178.380895625,65.7677975,175.541015625,69.4459075Z" fill="#D5D6DB" fill-opacity="1"/></g><g transform="matrix(0.9650646448135376,-0.26201173663139343,0.26201173663139343,0.9650646448135376,-23.89961541147204,33.0948260257137)"><path d="M112.154296875,113.654891875Q117.266076875,112.986031875,119.253986875,111.314161875C120.947756875,109.889691875,120.786056875,108.222471875,120.701116875,107.346691875C120.686366875,107.194591875,120.673926875,107.066365875,120.673926875,106.967426875C120.673926875,106.298789875,118.402026875,105.295562875,116.698096875,107.636171875Q114.994176875,109.976781875,112.154296875,113.654891875Z" fill="#D5D6DB" fill-opacity="1"/></g><g><path d="M219.2996640625,0.0002707499999999863L218.5056640625,0.75088475L219.2366640625,1.52377875L220.0306640625,0.77316675L219.2996640625,0.0002707499999999863ZM216.9316640625,2.23217875L215.3696640625,3.69189875L216.0956640625,4.46913875L217.6576640625,3.00940875L216.9316640625,2.23217875ZM213.8246640625,5.12530875L212.2496640625,6.57632875L212.9706640625,7.35875875L214.5456640625,5.90773875L213.8246640625,5.12530875ZM210.6556640625,8.03325875L209.0746640625,9.46675875L209.7896640625,10.25483875L211.3706640625,8.82134875L210.6556640625,8.03325875ZM207.5136640625,10.87101875L205.9006640625,12.30861875L206.6086640625,13.10271875L208.2216640625,11.66501875L207.5136640625,10.87101875ZM204.2886640625,13.73241875L202.6916640625,15.13031875L203.3916640625,15.93101875L204.9896640625,14.53311875L204.2886640625,13.73241875ZM201.0986640625,16.50941875L199.4476640625,17.92491875L200.1396640625,18.73261875L201.7916640625,17.31711875L201.0986640625,16.50941875ZM197.8206640625,19.30381875L196.2096640625,20.65391875L196.8926640625,21.46941875L198.5036640625,20.11931875L197.8206640625,19.30381875ZM194.5456640625,22.03021875L192.8806640625,23.39031875L193.5536640625,24.21431875L195.2186640625,22.85421875L194.5456640625,22.03021875ZM191.2416640625,24.71021875Q190.3946640625,25.38741875,189.5616640625,26.04391875L190.2196640625,26.87971875Q191.0556640625,26.22101875,191.9066640625,25.54101875L191.2416640625,24.71021875ZM187.8656640625,27.36861875Q187.0236640625,28.02131875,186.1956640625,28.65141875L186.8406640625,29.49781875Q187.6716640625,28.86481875,188.5176640625,28.20951875L187.8656640625,27.36861875ZM184.4826640625,29.94351875Q183.6116640625,30.59461875,182.7566640625,31.22101875L183.3846640625,32.07931875Q184.2456640625,31.44931875,185.1196640625,30.79561875L184.4826640625,29.94351875ZM181.0586640625,32.45081875Q180.1676640625,33.08961875,179.2946640625,33.70051875L179.9046640625,34.57221875Q180.7826640625,33.95791875,181.6786640625,33.31551875L181.0586640625,32.45081875ZM142.3766640625,35.33601875Q143.4326640625,35.27141875,144.4646640625,35.25471875L144.4476640625,34.19101875Q143.3916640625,34.20811875,142.3116640625,34.27411875L142.3766640625,35.33601875ZM146.6026640625,35.27241875Q147.67666406249998,35.30851875,148.7046640625,35.39971875L148.7986640625,34.34001875Q147.7416640625,34.24631875,146.6386640625,34.20921875L146.6026640625,35.27241875ZM138.0666640625,35.78551875Q139.0986640625,35.63221875,140.2186640625,35.51531875L140.1086640625,34.45721875Q138.9656640625,34.57651875,137.91066406250002,34.73321875L138.0666640625,35.78551875ZM150.7826640625,35.64821875Q151.8686640625,35.81351875,152.8686640625,36.04471875L153.10766406250002,35.00821875Q152.0686640625,34.76791875,150.9426640625,34.59651875L150.7826640625,35.64821875ZM177.5406640625,34.91201875Q176.6596640625,35.51261875,175.7946640625,36.08541875L176.3826640625,36.97221875Q177.2526640625,36.39591875,178.1396640625,35.79101875L177.5406640625,34.91201875ZM134.00366406249998,36.62411875Q134.93966406250001,36.36291875,136.0026640625,36.14621875L135.78966406249998,35.10381875Q134.68966406250001,35.32811875,133.7176640625,35.59941875L134.00366406249998,36.62411875ZM154.8776640625,36.60611875Q155.9086640625,36.94991875,156.78466406249998,37.37031875L157.2446640625,36.41111875Q156.3086640625,35.96181875,155.21366406250002,35.59681875L154.8776640625,36.60611875ZM130.1762640625,38.19791875Q130.9514640625,37.71211875,131.9998640625,37.29291875L131.60486406249998,36.30511875Q130.4676640625,36.75981875,129.6114640625,37.29641875L130.1762640625,38.19791875ZM173.9816640625,37.26851875Q173.0846640625,37.84401875,172.2066640625,38.38801875L172.7676640625,39.29221875Q173.6516640625,38.74401875,174.5556640625,38.16381875L173.9816640625,37.26851875ZM158.5336640625,38.40031875Q159.4116640625,39.04071875,159.9686640625,39.77171875L160.8146640625,39.12671875Q160.1636640625,38.27261875,159.16066406250002,37.54091875L158.5336640625,38.40031875ZM128.2423640625,41.07701875Q128.1435640625,40.24461875,128.7313640625,39.45691875L127.8786640625,38.82071875Q127.0371640625,39.94851875,127.1859640625,41.20241875L128.2423640625,41.07701875ZM170.3656640625,39.50751875Q169.4396640625,40.05901875,168.5366640625,40.57361875L169.0626640625,41.49801875Q169.9756640625,40.97831875,170.9096640625,40.42151875L170.3656640625,39.50751875ZM160.7906640625,41.47701875Q160.9956640625,42.37301875,160.7846640625,43.34681875L161.8236640625,43.57201875Q162.0846640625,42.36701875,161.8276640625,41.24031875L160.7906640625,41.47701875ZM166.6746640625,41.60801875Q165.7196640625,42.12471875,164.7926640625,42.59771875L165.2756640625,43.54541875Q166.2146640625,43.06671875,167.1816640625,42.54361875L166.6746640625,41.60801875ZM130.5402640625,43.97861875Q129.5983640625,43.34611875,129.0246640625,42.67241875L128.2146640625,43.36221875Q128.8835640625,44.14751875,129.9471640625,44.86181875L130.5402640625,43.97861875ZM162.8906640625,43.53481875Q161.9106640625,44.00101875,160.9616640625,44.41551875L161.3866640625,45.39041875Q162.3516640625,44.96911875,163.3476640625,44.49561875L162.8906640625,43.53481875ZM134.2596640625,45.76301875Q133.2266640625,45.40011875,132.3393640625,44.98321875L131.8868640625,45.94601875Q132.8226640625,46.38591875,133.9066640625,46.76681875L134.2596640625,45.76301875ZM159.3586640625,46.23231875Q159.1376640625,46.52661875,158.8846640625,46.82411875L159.6956640625,47.51231875Q160.4766640625,46.59231875,160.9896640625,45.68741875L160.06466406250001,45.16281875Q159.77266406249998,45.67691875,159.3816640625,46.20121875L158.99966406250002,45.23021875Q157.99866406249998,45.62391875,157.03566406250002,45.95571875L157.3816640625,46.96151875Q158.3516640625,46.62741875,159.3586640625,46.23231875ZM138.3166640625,46.85531875Q137.2466640625,46.64031875,136.2556640625,46.37581875L135.9816640625,47.40361875Q137.0046640625,47.67671875,138.1066640625,47.89831875L138.3166640625,46.85531875ZM154.99966406250002,46.60001875Q153.96366406250002,46.89751875,152.9776640625,47.11641875L153.2076640625,48.15501875Q154.2266640625,47.92891875,155.2936640625,47.62251875L154.99966406250002,46.60001875ZM142.4856640625,47.47061875Q141.4286640625,47.36541875,140.4176640625,47.21791875L140.2646640625,48.27061875Q141.2996640625,48.42161875,142.3806640625,48.52921875L142.4856640625,47.47061875ZM150.9186640625,47.49561875Q149.8396640625,47.65141875,148.82666406250002,47.70231875L148.8796640625,48.76481875Q149.9426640625,48.71141875,151.0706640625,48.54851875L150.9186640625,47.49561875ZM146.7196640625,47.71631875Q145.65266406249998,47.69581875,144.6156640625,47.63651875L144.5556640625,48.69861875Q145.61266406250002,48.75901875,146.6996640625,48.77991875L146.7196640625,47.71631875ZM157.3956640625,48.35831875Q156.6956640625,49.00031875,155.86266406250002,49.64791875L156.5146640625,50.48791875Q157.3826640625,49.81381875,158.1146640625,49.14241875L157.3956640625,48.35831875ZM154.1216640625,50.90831875Q153.3006640625,51.46461875,152.3876640625,52.02121875L152.9416640625,52.92951875Q153.8766640625,52.35961875,154.7176640625,51.78891875L154.1216640625,50.90831875ZM150.4946640625,53.12051875Q149.6296640625,53.60031875,148.6976640625,54.07871875L149.1836640625,55.02501875Q150.1306640625,54.53881875,151.01066406249998,54.05091875L150.4946640625,53.12051875ZM146.7416640625,55.04741875Q145.7946640625,55.49971875,144.78966406249998,55.95001875L145.22466406249998,56.92081875Q146.2416640625,56.46521875,147.1996640625,56.00731875L146.7416640625,55.04741875ZM142.82566406249998,56.80451875Q141.8666640625,57.20981875,140.86266406250002,57.61291875L141.2586640625,58.60021875Q142.27266406249998,58.19351875,143.2396640625,57.78431875L142.82566406249998,56.80451875ZM138.8676640625,58.39351875L136.8656640625,59.13991875L137.23666406249998,60.13671875L139.2386640625,59.39031875L138.8676640625,58.39351875ZM134.8636640625,59.85111875L132.83766406249998,60.53671875L133.1776640625,61.54441875L135.2046640625,60.85881875L134.8636640625,59.85111875ZM130.8190640625,61.18691875L128.7731640625,61.81431875L129.0850640625,62.83141875L131.1309640625,62.20401875L130.8190640625,61.18691875ZM126.7324640625,62.40971875L124.6805640625,62.97901875L124.9650640625,64.00411875L127.0169640625,63.43481875L126.7324640625,62.40971875ZM122.6307640625,63.51961875L120.5575640625,64.03891875L120.8160640625,65.07091875L122.8892640625,64.55151875L122.6307640625,63.51961875ZM118.4871640625,64.53121875L116.3955640625,65.00291875L116.6295640625,66.04071875L118.7211640625,65.56901875L118.4871640625,64.53121875ZM114.3072640625,65.44911875L112.2114640625,65.87321875L112.4224640625,66.91591875L114.5182640625,66.49181875L114.3072640625,65.44911875ZM110.1251640625,66.27251875L108.0219640625,66.65301875L108.2113640625,67.69991875L110.3145640625,67.31941875L110.1251640625,66.27251875ZM105.9235640625,67.01151875L103.8102640625,67.35181875L103.9794640625,68.40211875L106.0926640625,68.06181875L105.9235640625,67.01151875ZM101.7025640625,67.67151875L99.5820640625,67.97391875L99.7322640625,69.02711875L101.8527640625,68.72471875L101.7025640625,67.67151875ZM97.4686640625,68.25691875L95.34446406250001,68.52351875L95.4769640625,69.57901875L97.6011640625,69.31241875L97.4686640625,68.25691875ZM93.22716406250001,68.77211875L91.1010640625,69.00531875L91.2170640625,70.06281875L93.3431640625,69.82961875L93.22716406250001,68.77211875ZM88.9825640625,69.22191875L86.8570640625,69.42391875L86.95776406249999,70.48301875L89.0831640625,70.28091875L88.9825640625,69.22191875ZM84.7304640625,69.61141875L82.5885640625,69.78601875L82.67496406250001,70.84631875L84.8168640625,70.67171875L84.7304640625,69.61141875ZM80.4559640625,69.94611875L78.3203640625,70.09351875L78.3936640625,71.15481875L80.5292640625,71.00751875L80.4559640625,69.94611875ZM76.19496406249999,70.22781875L74.0683640625,70.35031875L74.1294640625,71.41241875L76.2561640625,71.28991875L76.19496406249999,70.22781875ZM71.9527640625,70.46091875L69.7950640625,70.56271875L69.8451640625,71.62541875L72.0029640625,71.52361875L71.9527640625,70.46091875ZM67.6474640625,70.65361875L65.50286406250001,70.73441875L65.5429640625,71.79741875L67.6875640625,71.71661875L67.6474640625,70.65361875ZM63.371464062499996,70.80541875L61.2450640625,70.86751875L61.2760640625,71.93091875L63.402564062500005,71.86871875L63.371464062499996,70.80541875ZM59.1327640625,70.92111875L56.9862640625,70.96781875L57.0093640625,72.03141875L59.155964062500004,71.98461875L59.1327640625,70.92111875ZM54.8223640625,71.00751875L52.6682640625,71.04031875L52.6844640625,72.10401875L54.8385640625,72.07121875L54.8223640625,71.00751875ZM50.5313640625,71.06671875L48.4064640625,71.08751875L48.4168640625,72.15131875L50.5417640625,72.13051875L50.5313640625,71.06671875ZM46.2996640625,71.10331875L44.1665640625,71.11491875L44.1723640625,72.17881875L46.3054640625,72.16711875L46.2996640625,71.10331875ZM41.9857940625,71.12311875L39.8236140625,71.12801875L39.8260340625,72.19181875L41.9882140625,72.18691875L41.9857940625,71.12311875ZM37.6836540625,71.13051875L35.5648840625,71.13141875L35.5653440625,72.19521875L37.6841040625,72.19431875L37.6836540625,71.13051875ZM33.4695140625,71.13151875L32.4306806859,71.13141875L32.4306474391,72.19531875L33.4694840625,72.19531875L33.4695140625,71.13151875Z" fill-rule="evenodd" fill="#D5D6DB" fill-opacity="1"/></g></g></svg>