<svg xmlns="http://www.w3.org/2000/svg" xmlns:xlink="http://www.w3.org/1999/xlink" fill="none" version="1.1" width="75" height="80.23262023925781" viewBox="0 0 75 80.23262023925781"><defs><linearGradient x1="0.5" y1="0" x2="0.5" y2="1" id="master_svg0_1048_83454"><stop offset="0%" stop-color="#D8E1EE" stop-opacity="1"/><stop offset="100%" stop-color="#D4DCE8" stop-opacity="0"/></linearGradient></defs><g><path d="M60.8877,80.2326C59.3204,80.2326,58.0486,78.9346,58.044,77.3304L58.044,60.7128L51.472,67.0079C50.947,67.5122,50.2536,67.7922,49.5335,67.7905C48.3746,67.7899,47.3337,67.0644,46.9087,65.9608C46.4836,64.8573,46.7607,63.5999,47.6074,62.79L57.5273,53.267C59.2486,51.125,62.4525,51.125,64.1737,53.267L74.0936,62.79C75.25,63.8788,75.3077,65.7271,74.2217,66.8894C73.7057,67.467,72.9734,67.7917,72.2088,67.7821C71.4898,67.78,70.7972,67.504,70.2662,67.0079L63.7438,60.7382L63.7438,77.3304C63.7393,78.9396,62.4599,80.2396,60.8877,80.2326ZM48.1695,75.0121L8.48981,75.0121C3.81296,75.0144,0.0159447,71.1432,0,66.3564L0,8.66419C0.015951,3.871,3.81918,-0.00468784,8.50221,0.00000424902L65.1698,0.00000424902C69.8522,-0.00468448,73.6542,3.87168,73.6679,8.66419L73.6679,19.9175C73.6865,20.1116,73.6865,20.3072,73.6679,20.5013L73.6679,49.0534C73.6096,50.6165,72.3546,51.853,70.8262,51.853C69.2979,51.853,68.0428,50.6165,67.9846,49.0534L67.9846,27.2067L47.3759,48.1607C45.7962,49.7893,43.6455,50.7033,41.4033,50.699C40.0779,50.6966,38.7709,50.381,37.5841,49.7768L22.2124,41.9587C21.8282,41.7582,21.4036,41.6525,20.9724,41.6499C20.2247,41.649,19.5076,41.9536,18.9801,42.496L5.65023,56.0126L5.65023,66.3394C5.65934,67.9413,6.93303,69.2336,8.49807,69.2289L48.1778,69.2289C49.7399,69.2266,51.0087,70.5195,51.0132,72.1184C51.0064,73.7153,49.7421,75.0074,48.1819,75.0121L48.1695,75.0121ZM22.7332,10.5764C18.1677,10.5764,14.4666,14.3646,14.4666,19.0375C14.4666,23.7105,18.1677,27.4986,22.7332,27.4986C27.2987,27.4986,30.9998,23.7105,30.9998,19.0375C30.9998,14.3646,27.2987,10.5764,22.7332,10.5764Z" fill="url(#master_svg0_1048_83454)" fill-opacity="1" style="mix-blend-mode:passthrough"/></g></svg>