<svg xmlns="http://www.w3.org/2000/svg" xmlns:xlink="http://www.w3.org/1999/xlink" fill="none" version="1.1" width="58" height="57.709999084472656" viewBox="0 0 58 57.709999084472656"><defs><clipPath id="master_svg0_1179_014863"><rect x="0" y="0" width="58" height="57.709999084472656" rx="0"/></clipPath><linearGradient x1="0.7824629545211792" y1="0.024018818512558937" x2="0.47256407418086666" y2="0.9188064108172747" id="master_svg1_1179_014900"><stop offset="0%" stop-color="#FEFAF8" stop-opacity="1"/><stop offset="100%" stop-color="#F9E0D6" stop-opacity="1"/></linearGradient><linearGradient x1="-0.0611746683716774" y1="0.1996816247701645" x2="1.0679248243175798" y2="0.7733643015383227" id="master_svg2_1179_014869"><stop offset="0%" stop-color="#FEFAF8" stop-opacity="1"/><stop offset="100%" stop-color="#F7D8CB" stop-opacity="1"/></linearGradient><mask id="master_svg3_1179_014890" style="mask-type:alpha" maskUnits="objectBoundingBox"><g><g><g><path d="M51.38999984741211,28.020000457763672L38.90999984741211,28.020000457763672L38.90999984741211,54.09000045776367L51.38999984741211,54.09000045776367L51.38999984741211,28.020000457763672Z" fill="#FFFFFF" fill-opacity="1" style="mix-blend-mode:passthrough"/></g></g></g></mask><mask id="master_svg4_1179_014883" style="mask-type:alpha" maskUnits="objectBoundingBox"><g><g><g><path d="M51.38999984741211,28.020000457763672L38.90999984741211,28.020000457763672L38.90999984741211,54.09000045776367L51.38999984741211,54.09000045776367L51.38999984741211,28.020000457763672Z" fill="#FFFFFF" fill-opacity="1" style="mix-blend-mode:passthrough"/></g></g></g></mask></defs><g clip-path="url(#master_svg0_1179_014863)"><g><path d="M29,57.70999816894531C45.02,57.70999816894531,58,56.199998168945314,58,54.32999816894531C58,52.45999516894531,42.08,51.91999816894531,26.06,51.91999816894531C10.04,51.91999816894531,0,52.46999716894531,0,54.32999816894531C0,56.18999816894531,12.98,57.70999816894531,29,57.70999816894531Z" fill-rule="evenodd" fill="#FCF2EE" fill-opacity="1" style="mix-blend-mode:passthrough"/></g><g><path d="M9.54000002861023,28.020000457763672L38.91000002861023,28.020000457763672L30.83000002861023,37.440000457763674L1.4700000286102295,37.440000457763674L9.55000002861023,28.020002365113672L9.54000002861023,28.020000457763672Z" fill-rule="evenodd" fill="#F5D0C1" fill-opacity="1" style="mix-blend-mode:passthrough"/></g><g><g><path d="M48.13000077724457,17.139999313354494L36.15000077724457,11.629999313354492L34.06000077724457,7.469999313354492L46.04000077724457,12.979999313354492L48.13000077724457,17.139999313354494Z" fill-rule="evenodd" fill="#F5D0C1" fill-opacity="1" style="mix-blend-mode:passthrough"/></g><g><path d="M48.130000433921815,17.14000022888184L22.840000433921816,5.510000228881836L11.670000433921814,29.140000228881835L36.950000433921815,40.770000228881834L48.12000043392182,17.14000022888184L48.130000433921815,17.14000022888184Z" fill-rule="evenodd" fill="#F8DFD4" fill-opacity="1" style="mix-blend-mode:passthrough"/></g><g><path d="M22.840000014305115,5.510000002384186L11.530000014305115,0.3100000023841858L0.36000001430511475,23.940000002384185L11.670000014305115,29.140000002384184L22.840000014305115,5.510000002384186Z" fill="url(#master_svg1_1179_014900)" fill-opacity="1" style="mix-blend-mode:passthrough"/></g><g><path d="M11.53000009059906,0.31L22.840000090599062,5.51L34.33000009059906,5.2L23.020000090599062,0L11.53000009059906,0.31Z" fill-rule="evenodd" fill="#FDF3F0" fill-opacity="1" style="mix-blend-mode:passthrough"/></g></g><g><path d="M38.90999996185303,28.020000457763672L9.539999961853027,28.020000457763672L9.539999961853027,54.09000045776367L38.90999996185303,54.09000045776367L38.90999996185303,28.020000457763672Z" fill="url(#master_svg2_1179_014869)" fill-opacity="1" style="mix-blend-mode:passthrough"/></g><g mask="url(#master_svg3_1179_014890)"><g><g mask="url(#master_svg4_1179_014883)"><g><g><path d="M38.90999984741211,28.020000457763672L51.38999984741211,28.020000457763672L51.38999984741211,54.09000045776367L38.90999984741211,54.09000045776367L38.90999984741211,28.020000457763672Z" fill="#F4C9B6" fill-opacity="1" style="mix-blend-mode:passthrough"/></g><g><path d="M51.38999984741211,28.020000457763672L38.90999984741211,28.020000457763672L41.84999984741211,41.06000045776367L56.529999847412114,39.610000457763675L51.38999984741211,28.020000457763672Z" fill-rule="evenodd" fill="#EFB299" fill-opacity="1" style="mix-blend-mode:passthrough"/></g></g></g></g></g><g><path d="M51.38999984741211,28.020000457763672L38.90999984741211,28.020000457763672L45.51999984741211,37.440000457763674L57.99999984741211,37.440000457763674L51.38999984741211,28.020000457763672Z" fill-rule="evenodd" fill="#FDF3F0" fill-opacity="1" style="mix-blend-mode:passthrough"/></g></g></svg>