<svg xmlns="http://www.w3.org/2000/svg" xmlns:xlink="http://www.w3.org/1999/xlink" fill="none" version="1.1" width="51.8684196472168" height="54" viewBox="0 0 51.8684196472168 54"><defs><clipPath id="master_svg0_1179_014837"><rect x="0" y="0" width="51.8684196472168" height="54" rx="0"/></clipPath><linearGradient x1="0.4999265968799591" y1="1" x2="0.4999265968799591" y2="0" id="master_svg1_1179_008720"><stop offset="0%" stop-color="#FFD9CA" stop-opacity="0"/><stop offset="100%" stop-color="#FFD3C4" stop-opacity="1"/></linearGradient><linearGradient x1="0.4999265968799591" y1="1" x2="0.4999265968799591" y2="0" id="master_svg2_1179_008720"><stop offset="0%" stop-color="#FFD9CA" stop-opacity="0"/><stop offset="100%" stop-color="#FFD3C4" stop-opacity="1"/></linearGradient></defs><g clip-path="url(#master_svg0_1179_014837)"><g><path d="M33.3155,46.59L5.8751,46.59C4.78785,46.59,3.91008,45.72,3.91008,44.65L3.91008,37.7L13.1267,28.6C13.4958,28.24,13.9845,28.03,14.5032,28.03C14.8024,28.03,15.0917,28.1,15.361,28.24L25.9941,33.5C26.812,33.91,27.7197,34.12,28.6374,34.12C30.1834,34.12,31.6796,33.51,32.7669,32.41L47.0207,18.31L47.0207,33.01C47.0606,34.06,47.9284,34.89,48.9857,34.89C50.043,34.89,50.9108,34.06,50.9507,33.01L50.9507,13.8C50.9607,13.67,50.9607,13.54,50.9507,13.41L50.9507,5.84C50.9408,2.61,48.3074,0,45.0657,0L35.9089,0L30.4029,6.92C33.6846,9.33,38.7118,13.01,39.799,13.81C39.0011,14.31,24.7073,23.29,23.4306,24.1L23.3607,24.01L33.4252,14.22L24.7572,10.07L23.0017,9.23L23.6001,6.29L24.8869,0L5.8751,0C2.64329,0,0.0099747,2.61,0,5.83L0,44.66C0.0099747,47.88,2.63332,50.49,5.8751,50.49L33.3255,50.49C34.4027,50.49,35.2805,49.62,35.2805,48.54C35.2805,47.46,34.4027,46.59,33.3155,46.6L33.3155,46.59ZM15.7201,7.12C18.8821,7.12,21.4356,9.67,21.4356,12.81C21.4356,15.95,18.8721,18.5,15.7201,18.5C12.5681,18.5,10.0046,15.95,10.0046,12.81C10.0046,9.67,12.5681,7.12,15.7201,7.12Z" fill="url(#master_svg1_1179_008720)" fill-opacity="1" style="mix-blend-mode:passthrough"/></g><g><path d="M51.239275,42.25953125L44.376675,35.84953125C43.189675,34.40953025,40.975315,34.40953025,39.778345,35.84953125L32.915758,42.25953125C32.3272507,42.80953125,32.137733,43.64953125,32.436973,44.38953125C32.72624,45.12953125,33.454395,45.61953125,34.252365,45.61953125C34.751105,45.61953125,35.229885,45.42953125,35.588975,45.08953125L40.137434999999996,40.84953125L40.137434999999996,52.029531250000005C40.137434999999996,53.10953125,41.025185,53.97953125,42.102455,53.97953125C43.189675,53.97953125,44.077475,53.10953125,44.077475,52.029531250000005L44.077475,40.85953125L48.585975000000005,45.07953125C48.955075,45.40953125,49.433875,45.59953125,49.932575,45.59953125C50.461275,45.59953125,50.969975000000005,45.38953125,51.329075,44.999531250000004C52.077175,44.21954125,52.037275,42.96953125,51.239275,42.23954125L51.239275,42.25953125Z" fill="url(#master_svg2_1179_008720)" fill-opacity="1" style="mix-blend-mode:passthrough"/></g></g></svg>